<?xml version="1.0" encoding="utf-8"?>
<!-- Generator: Adobe Illustrator 16.0.0, SVG Export Plug-In . SVG Version: 6.00 Build 0)  -->
<!DOCTYPE svg PUBLIC "-//W3C//DTD SVG 1.1//EN" "http://www.w3.org/Graphics/SVG/1.1/DTD/svg11.dtd">
<svg version="1.1" id="Layer_1" xmlns="http://www.w3.org/2000/svg" xmlns:xlink="http://www.w3.org/1999/xlink" x="0px" y="0px"
	 width="200px" height="150px" viewBox="0 0 200 150" enable-background="new 0 0 200 150" xml:space="preserve">
<g>
	<g>
		<path fill-rule="evenodd" clip-rule="evenodd" fill="#FFFFFF" stroke="#FFFFFF" stroke-width="10" stroke-miterlimit="10" d="
			M67.863,54.099c0.297,0.075,0.408,0.265,0.541,0.435c4.573,5.892,10.446,9.992,17.414,12.552
			c5.13,1.884,10.447,2.606,15.898,2.385c7.643-0.307,14.669-2.535,21.021-6.802c3.468-2.332,6.533-5.1,8.99-8.509
			c0.354-0.492,0.394-0.499,0.932-0.144c4.024,2.677,8.05,5.359,12.069,8.042c10.671,7.112,21.338,14.224,32.009,21.335
			c0.427,0.29,0.86,0.575,1.279,0.88c0.565,0.41,1.045,0.907,1.429,1.487c1.045,1.567,1.028,3.425-0.041,4.984
			c-0.572,0.839-1.353,1.44-2.187,1.993c-4.243,2.822-8.48,5.648-12.718,8.476c-19.072,12.716-38.148,25.426-57.209,38.16
			c-2.24,1.496-4.667,2.191-7.327,2.128c-2.438-0.058-4.628-0.801-6.67-2.164c-19.489-13.024-39.004-26.019-58.509-39.022
			c-3.735-2.49-7.471-4.98-11.206-7.474c-0.358-0.24-0.72-0.479-1.062-0.737c-0.592-0.451-1.09-0.985-1.464-1.63
			c-0.889-1.518-0.878-3.031,0.022-4.538c0.404-0.678,0.943-1.234,1.576-1.698c0.49-0.354,0.996-0.687,1.497-1.024
			c14.191-9.458,28.38-18.916,42.571-28.372C67.11,54.579,67.51,54.329,67.863,54.099z"/>
		<path fill-rule="evenodd" clip-rule="evenodd" fill="#C1032D" d="M67.863,54.099c0.297,0.075,0.408,0.265,0.541,0.435
			c4.573,5.892,10.446,9.992,17.414,12.552c5.13,1.884,10.447,2.606,15.898,2.385c7.643-0.307,14.669-2.535,21.021-6.802
			c3.468-2.332,6.533-5.1,8.99-8.509c0.354-0.492,0.394-0.499,0.932-0.144c4.024,2.677,8.05,5.359,12.069,8.042
			c10.671,7.112,21.338,14.224,32.009,21.335c0.427,0.29,0.86,0.575,1.279,0.88c0.565,0.41,1.045,0.907,1.429,1.487
			c1.045,1.567,1.028,3.425-0.041,4.984c-0.572,0.839-1.353,1.44-2.187,1.993c-4.243,2.822-8.48,5.648-12.718,8.476
			c-19.072,12.716-38.148,25.426-57.209,38.16c-2.24,1.496-4.667,2.191-7.327,2.128c-2.438-0.058-4.628-0.801-6.67-2.164
			c-19.489-13.024-39.004-26.019-58.509-39.022c-3.735-2.49-7.471-4.98-11.206-7.474c-0.358-0.24-0.72-0.479-1.062-0.737
			c-0.592-0.451-1.09-0.985-1.464-1.63c-0.889-1.518-0.878-3.031,0.022-4.538c0.404-0.678,0.943-1.234,1.576-1.698
			c0.49-0.354,0.996-0.687,1.497-1.024c14.191-9.458,28.38-18.916,42.571-28.372C67.11,54.579,67.51,54.329,67.863,54.099z
			 M131.901,85.022c-0.493-0.916-0.945-1.749-1.394-2.583c-0.738-1.372-1.505-2.722-2.206-4.111
			c-0.521-1.036-1.302-1.569-2.466-1.538c-0.521,0.016-1.038,0-1.556,0.002c-1.689,0.001-3.372-0.002-5.058,0.009
			c-0.439,0.005-0.55,0.116-0.554,0.534c-0.016,0.864-0.02,1.729-0.003,2.594c0.005,0.425-0.157,0.915,0.095,1.259
			c0.289,0.39,0.805,0.127,1.219,0.189c0.085,0.012,0.174,0.004,0.257,0.019c0.185,0.042,0.3,0.162,0.312,0.351
			c0.018,0.344,0.026,0.692,0.026,1.035c0.002,2.119,0,4.234,0.002,6.354c0,0.344,0.002,0.691,0.023,1.035
			c0.014,0.247,0.18,0.378,0.416,0.414c0.619,0.088,1.264-0.004,1.853,0.293c-0.473,0.065-0.946,0.065-1.42,0.065
			c-0.777,0-1.553,0.004-2.333,0.005c-0.32,0.002-0.452,0.176-0.452,0.488c0.005,1.209,0.003,2.421,0.005,3.632
			c0.001,0.305,0.159,0.482,0.472,0.487c0.735,0.005,1.47,0.005,2.205,0.005c1.987,0,3.976,0.001,5.963-0.008
			c0.426,0,0.553-0.118,0.558-0.535c0.018-0.995,0.015-1.99,0.006-2.982c-0.003-0.336,0.087-0.695-0.138-1.012
			c-0.419-0.146-0.854-0.054-1.278-0.081c-0.445-0.031-0.526-0.093-0.529-0.549c-0.011-1.25-0.009-2.505-0.003-3.758
			c0-0.144-0.072-0.355,0.194-0.387c0.289,0.216,0.391,0.558,0.552,0.856c1.146,2.127,2.285,4.26,3.43,6.39
			c0.186,0.343,0.375,0.683,0.578,1.013c0.363,0.592,0.903,0.917,1.588,1c0.295,0.037,0.599,0.048,0.901,0.05
			c1.081,0.006,2.16-0.002,3.241,0.002c1.122,0.007,1.113,0.016,1.113-1.163c-0.002-3.845-0.007-7.693,0.009-11.54
			c0.002-0.46-0.216-1.012,0.16-1.359c0.316-0.297,0.821-0.096,1.245-0.125c0.332-0.023,0.447-0.191,0.447-0.497
			c-0.004-1.166,0.005-2.335-0.004-3.501c-0.007-0.489-0.099-0.567-0.644-0.579c-0.824-0.013-1.64-0.006-2.464-0.006
			c-1.554-0.002-3.111,0.006-4.668-0.002c-1.299-0.008-1.236,0.008-1.234,1.174c0.002,0.692-0.013,1.385,0.006,2.074
			c0.017,0.421-0.195,0.959,0.168,1.226c0.267,0.191,0.748,0.087,1.134,0.116c0.043,0.003,0.085,0.008,0.127,0.011
			c0.201,0.018,0.322,0.135,0.328,0.328c0.013,0.821,0.023,1.641,0.02,2.461C132.148,84.42,132.237,84.687,131.901,85.022z
			 M105.02,76.793c-0.435,0-0.863-0.005-1.3,0c-1.163,0.018-2.325-0.046-3.491,0.124c-1.104,0.161-1.912,0.735-2.493,1.66
			c-0.301,0.477-0.491,1.003-0.634,1.549c-0.293,1.136-0.467,2.288-0.485,3.456c-0.032,1.596-0.017,3.193-0.021,4.791
			c-0.002,1,0.145,1.981,0.305,2.962c0.117,0.721,0.315,1.432,0.651,2.093c0.571,1.104,1.418,1.835,2.693,1.98
			c0.598,0.068,1.2,0.143,1.801,0.147c1.987,0.019,3.972,0.019,5.959,0c0.604-0.004,1.203-0.078,1.805-0.147
			c1.271-0.148,2.118-0.882,2.688-1.988c0.337-0.66,0.54-1.369,0.652-2.093c0.461-3.046,0.421-6.107,0.157-9.169
			c-0.028-0.343-0.073-0.687-0.135-1.026c-0.139-0.767-0.323-1.521-0.681-2.221c-0.59-1.158-1.494-1.879-2.814-2.001
			c-0.52-0.048-1.031-0.102-1.548-0.11C107.09,76.779,106.054,76.793,105.02,76.793z M66.501,81.378c0.673,0,1.179,0,1.687,0
			c0.561-0.002,1.122,0,1.684-0.008c0.314-0.007,0.459-0.187,0.456-0.496c-0.002-1.211,0.003-2.421-0.009-3.631
			c-0.001-0.244-0.143-0.402-0.392-0.425c-0.216-0.024-0.43-0.025-0.646-0.025c-2.594-0.002-5.188,0-7.78,0
			c-0.172,0-0.346,0.006-0.517,0.014c-0.315,0.007-0.469,0.177-0.47,0.486c-0.004,0.775-0.025,1.556-0.001,2.332
			c0.019,0.549-0.218,1.196,0.154,1.617c0.305,0.348,0.903,0.076,1.364,0.149c0.191,0.031,0.318,0.122,0.332,0.322
			c0.017,0.257,0.025,0.518,0.025,0.776c0.001,2.29,0.011,4.581-0.009,6.871c-0.003,0.501,0.231,1.105-0.174,1.478
			c-0.299,0.28-0.825,0.076-1.25,0.11c-0.042,0.005-0.086,0.01-0.129,0.015c-0.198,0.027-0.3,0.155-0.304,0.344
			c-0.011,0.432-0.016,0.864-0.016,1.297c-0.001,0.82,0,1.642,0.007,2.463c0.002,0.298,0.146,0.483,0.469,0.487
			c0.171,0.002,0.345,0.008,0.517,0.008c4.756,0,9.509,0,14.264,0c0.213,0,0.432-0.004,0.646-0.024
			c0.188-0.015,0.323-0.131,0.342-0.32c0.028-0.254,0.039-0.517,0.039-0.772c0.004-1.818,0.004-3.633,0-5.447
			c0-0.217,0.006-0.433-0.016-0.649c-0.018-0.231-0.134-0.428-0.387-0.428c-1.426-0.01-2.851-0.006-4.274,0
			c-0.261,0.001-0.385,0.175-0.4,0.417c-0.014,0.216,0.009,0.435-0.013,0.648c-0.061,0.63,0.166,1.286-0.145,1.896
			c-0.63,0.208-1.279,0.062-1.919,0.099c-0.301,0.017-0.602-0.002-0.907-0.007c-0.33,0-0.443-0.193-0.439-0.493
			c0-0.217-0.004-0.433-0.004-0.649c0-2.247,0-4.494,0-6.741c0-0.305-0.003-0.604-0.006-0.907c-0.007-0.252-0.161-0.382-0.384-0.447
			C67.492,81.615,67.033,81.731,66.501,81.378z M86.356,95.558c0,0.002,0,0.002,0,0.004c0.734,0,1.47,0,2.2,0
			c0.739,0,1.473,0.007,2.205-0.004c0.585-0.012,0.648-0.075,0.657-0.696c0.014-0.823,0.026-1.643-0.007-2.464
			c-0.019-0.459,0.238-1.056-0.169-1.343c-0.297-0.21-0.826-0.087-1.255-0.11c-0.515-0.031-0.581-0.079-0.583-0.631
			c-0.008-2.766-0.008-5.531,0-8.294c0.002-0.548,0.079-0.614,0.58-0.637c0.348-0.016,0.694-0.006,1.037-0.016
			c0.261-0.005,0.39-0.153,0.39-0.405c0-1.251,0.005-2.506-0.002-3.756c-0.003-0.251-0.177-0.379-0.422-0.394
			c-0.174-0.01-0.348-0.018-0.52-0.018c-2.635,0-5.27-0.002-7.907,0.001c-0.215,0-0.433,0.006-0.645,0.034
			c-0.189,0.023-0.314,0.148-0.326,0.337c-0.016,0.386-0.019,0.776-0.019,1.166c-0.005,0.819-0.008,1.641,0.003,2.464
			c0.004,0.505,0.071,0.558,0.618,0.579c0.344,0.016,0.689,0.01,1.035,0.031c0.19,0.008,0.314,0.135,0.328,0.326
			c0.023,0.301,0.029,0.604,0.029,0.905c0.001,2.332,0.007,4.668-0.005,7c0,0.383,0.15,0.826-0.104,1.131
			c-0.314,0.371-0.811,0.121-1.226,0.178c-0.085,0.011-0.174,0.001-0.259,0.008c-0.246,0.011-0.409,0.124-0.409,0.386
			c-0.004,1.254-0.008,2.506-0.004,3.761c0,0.316,0.195,0.458,0.498,0.459C83.506,95.558,84.93,95.558,86.356,95.558z
			 M98.416,126.653c0.477-0.057,1.173-0.095,1.845-0.229c0.675-0.134,1.324-0.381,1.897-0.791c1.045-0.75,1.426-1.846,1.053-3.074
			c-0.087-0.287-0.221-0.56-0.331-0.841c-0.1-0.259-0.06-0.499,0.078-0.742c0.732-1.281,2.457-2.053,3.881-1.736
			c1.108,0.247,1.881,1.15,1.95,2.289c0.068,1.204-0.449,1.873-1.635,2.077c-0.212,0.037-0.437,0.017-0.643,0.062
			c-0.335,0.074-0.495,0.329-0.548,0.647c-0.048,0.286,0.148,0.558,0.472,0.693c0.079,0.035,0.158,0.074,0.24,0.093
			c1.386,0.339,2.974-0.58,3.382-1.95c0.494-1.666-0.215-3.474-1.705-4.381c-1.579-0.959-4.254-0.873-5.692,0.809
			c-0.362,0.424-0.671,0.896-1.005,1.348c-0.54,0.728-1.039,1.485-1.621,2.175c-0.763,0.91-1.715,1.571-2.854,1.934
			c-0.585,0.186-1.172,0.272-1.78,0.155c-0.109-0.021-0.161-0.082-0.141-0.182c0.019-0.077,0.024-0.197,0.073-0.22
			c0.231-0.111,0.468-0.206,0.711-0.285c1.447-0.461,2.587-1.355,3.522-2.525c0.353-0.44,0.64-0.919,0.769-1.479
			c0.098-0.44-0.059-0.779-0.485-0.917c-0.786-0.245-1.529-0.187-2.185,0.371c-0.434,0.369-0.753,0.83-1.082,1.288
			c-0.377,0.525-0.748,1.054-1.145,1.565c-0.38,0.49-0.888,0.813-1.479,0.99c-0.485,0.143-0.949,0.064-1.377-0.18
			c-0.454-0.256-0.604-0.704-0.46-1.222c0.097-0.351,0.352-0.583,0.557-0.857c0.226-0.299,0.124-0.686-0.205-0.883
			c-0.108-0.063-0.229-0.121-0.352-0.141c-0.768-0.135-1.431,0.405-1.498,1.23c-0.069,0.816,0.23,1.525,0.718,2.16
			c0.613,0.808,1.428,1.367,2.337,1.794C95.113,126.371,96.642,126.58,98.416,126.653z M96.53,106.28
			c0,0.903-0.004,1.809,0.005,2.714c0,0.431-0.012,0.865,0.036,1.29c0.098,0.857,0.528,1.292,1.371,1.481
			c0.601,0.135,1.204,0.112,1.805,0.088c1.669-0.063,2.222-0.62,2.242-2.312c0.021-2.154,0.005-4.309,0.005-6.462
			c0-0.389-0.029-0.771-0.149-1.149c-0.208-0.641-0.652-1.05-1.297-1.1c-0.854-0.066-1.725-0.069-2.577-0.008
			c-0.756,0.057-1.249,0.576-1.378,1.327c-0.058,0.338-0.058,0.686-0.058,1.029C96.524,104.211,96.53,105.245,96.53,106.28z
			 M106.629,100.832c-0.024,0.378-0.052,0.587-0.052,0.798c-0.005,3.059-0.005,6.117-0.005,9.175c0,0.171,0.007,0.344,0.021,0.515
			c0.011,0.253,0.159,0.392,0.406,0.396c0.947,0.007,1.895,0.031,2.841-0.002c1.392-0.047,2.077-0.677,2.11-2.067
			c0.049-2.239,0.049-4.479,0-6.718c-0.033-1.369-0.729-2.023-2.119-2.087C108.802,100.795,107.77,100.832,106.629,100.832z
			 M91.931,106.365c0-0.433,0-0.862,0-1.293c0-0.776,0.017-1.551-0.007-2.328c-0.042-1.369-0.605-1.923-1.999-1.969
			c-0.558-0.02-1.12,0.008-1.681,0.005c-0.95-0.005-1.685,0.64-1.748,1.695c-0.009,0.172-0.009,0.344-0.009,0.516
			c-0.003,2.198-0.003,4.395,0,6.594c0,0.258-0.011,0.521,0.038,0.773c0.145,0.738,0.542,1.254,1.329,1.393
			c0.898,0.158,1.796,0.158,2.697,0.003c0.785-0.137,1.194-0.644,1.335-1.386c0.055-0.293,0.039-0.6,0.041-0.901
			C91.934,108.432,91.931,107.4,91.931,106.365z M116.541,108.971c0.011,0,0.02,0,0.027,0c0,0.433-0.037,0.867,0.01,1.293
			c0.092,0.848,0.531,1.32,1.365,1.494c0.767,0.161,1.543,0.153,2.312,0.023c0.976-0.162,1.447-0.661,1.505-1.638
			c0.048-0.774-0.008-1.552,0.027-2.327c0.037-0.77-0.29-1.324-0.889-1.756c-0.525-0.379-1.044-0.761-1.56-1.155
			c-0.637-0.488-0.875-1.318-0.587-2.052c0.062-0.172,0.239-0.23,0.423-0.226c0.188,0.005,0.369,0.082,0.397,0.259
			c0.052,0.337,0.064,0.684,0.065,1.027c0,0.79-0.002,0.848,0.884,0.841c1.376-0.008,1.23,0.093,1.236-1.271
			c0-0.343,0.014-0.69-0.016-1.032c-0.087-1.017-0.628-1.582-1.632-1.657c-0.603-0.045-1.206-0.01-1.814-0.013
			c-1.018-0.008-1.713,0.714-1.737,1.691c-0.019,0.647,0.011,1.292-0.021,1.94c-0.041,0.812,0.293,1.407,0.94,1.867
			c0.457,0.324,0.87,0.718,1.35,0.997c0.699,0.401,0.916,0.976,0.829,1.729c-0.021,0.171-0.004,0.343-0.014,0.515
			c-0.022,0.284-0.231,0.45-0.526,0.423c-0.23-0.023-0.426-0.114-0.438-0.377c-0.019-0.43-0.011-0.86-0.019-1.292
			c-0.019-0.752-0.021-0.752-0.823-0.768c-0.045,0-0.085,0-0.129,0c-1.264,0.008-1.161-0.089-1.167,1.206
			C116.541,108.799,116.541,108.884,116.541,108.971z M78.05,106.321c0,1.377,0,2.758,0.002,4.138c0,0.301,0.003,0.604,0.023,0.906
			c0.01,0.187,0.131,0.339,0.317,0.337c0.586-0.013,1.268,0.253,1.737-0.145c0.349-0.297,0.092-0.9,0.127-1.364
			c0.022-0.299,0.006-0.604,0.006-0.905c0-0.476-0.007-0.948,0.004-1.421c0.012-0.51,0.062-0.544,0.617-0.577
			c0.044-0.002,0.087-0.002,0.131,0c1.07,0.044,0.955-0.114,0.963-1.018c0.002-0.129,0.006-0.258-0.005-0.388
			c-0.024-0.423-0.125-0.511-0.536-0.565c-0.364-0.047-0.825,0.167-1.078-0.201c-0.227-0.324-0.068-0.757-0.092-1.139
			c-0.016-0.214,0.002-0.429,0-0.646c-0.005-0.3,0.11-0.494,0.437-0.501c0.216-0.004,0.43,0,0.647-0.011
			c0.658-0.035,0.701-0.069,0.701-0.778c-0.001-1.245,0.142-1.223-1.158-1.216c-0.776,0.001-1.554,0.005-2.327,0.001
			c-0.312,0-0.487,0.133-0.5,0.447c-0.012,0.302-0.015,0.605-0.017,0.905C78.05,103.562,78.05,104.94,78.05,106.321z"/>
		<path fill-rule="evenodd" clip-rule="evenodd" fill="#E6B155" d="M132.95,46.229c0.545,0.1,0.893,0.444,1.273,0.699
			c6.259,4.162,12.51,8.333,18.764,12.5c9.307,6.205,18.612,12.413,27.923,18.613c1.375,0.916,2.635,1.946,3.656,3.263
			c1.562,2.015,2.419,4.299,2.433,6.833c0.012,2.572-0.812,4.912-2.404,6.97c-1.021,1.316-2.271,2.358-3.644,3.273
			c-9.96,6.631-19.919,13.262-29.873,19.9c-13.331,8.887-26.664,17.773-39.987,26.673c-2.001,1.332-4.124,2.343-6.485,2.83
			c-5.365,1.104-10.355,0.302-14.963-2.772c-18.927-12.641-37.872-25.257-56.811-37.884c-4.384-2.921-8.767-5.844-13.154-8.762
			c-1.451-0.963-2.761-2.065-3.801-3.479c-2.965-4.02-2.987-9.274-0.029-13.284c0.907-1.229,1.983-2.275,3.253-3.125
			c4.994-3.333,9.978-6.679,14.972-10.011c10.494-6.992,20.993-13.98,31.493-20.964c0.418-0.28,0.808-0.632,1.394-0.796
			c0.15,0.523,0.071,0.991,0.083,1.448c0.014,0.474-0.003,0.95-0.013,1.425c-0.001,0.237-0.146,0.397-0.325,0.525
			c-0.284,0.196-0.57,0.391-0.858,0.583C51.001,60.58,36.162,70.473,21.312,80.362c-1.306,0.869-2.487,1.864-3.374,3.178
			c-2.101,3.104-1.963,6.96,0.372,9.888c0.649,0.811,1.389,1.54,2.258,2.123c2.728,1.827,5.449,3.661,8.184,5.48
			c20.73,13.824,41.465,27.645,62.197,41.474c1.706,1.139,3.489,2.052,5.507,2.494c3.653,0.799,7.209,0.546,10.637-0.983
			c0.781-0.351,1.521-0.824,2.236-1.3c17.576-11.708,35.148-23.425,52.723-35.137c5.608-3.739,11.215-7.469,16.818-11.21
			c0.611-0.407,1.225-0.814,1.795-1.274c2.092-1.675,3.333-3.837,3.511-6.532c0.085-1.263-0.196-2.491-0.717-3.653
			c-0.762-1.699-1.947-3.049-3.483-4.085c-2.438-1.641-4.885-3.268-7.325-4.895c-12.831-8.554-25.662-17.102-38.489-25.658
			c-1.563-1.043-1.283-0.626-1.304-2.482C132.852,47.291,132.782,46.777,132.95,46.229z"/>
		<path fill-rule="evenodd" clip-rule="evenodd" fill="#E6B155" d="M71.433,28.853c0-6.87,0-13.741,0-20.611
			c0-0.261,0.023-0.521-0.003-0.778c-0.058-0.579,0.154-0.944,0.676-1.255c2.428-1.438,4.985-2.571,7.674-3.411
			c3.259-1.018,6.587-1.712,9.979-2.129c2.017-0.249,4.03-0.451,6.062-0.516c1.294-0.04,2.585-0.117,3.881-0.145
			c2.165-0.042,4.323,0.089,6.471,0.248c5.438,0.403,10.785,1.324,15.924,3.239c1.947,0.728,3.809,1.625,5.599,2.68
			c0.55,0.32,0.845,0.7,0.769,1.347c-0.029,0.254-0.005,0.518-0.005,0.775c0,13.788,0,27.572,0,41.356
			c0,0.301-0.017,0.606,0.005,0.906c0.028,0.458-0.121,0.847-0.393,1.203c-0.318,0.411-0.612,0.838-0.954,1.228
			c-3.753,4.32-8.298,7.525-13.615,9.637c-3.07,1.219-6.25,2.009-9.524,2.332c-7.721,0.761-15.05-0.573-21.87-4.358
			c-3.737-2.074-7.023-4.715-9.723-8.05c-0.083-0.098-0.159-0.205-0.244-0.301c-0.531-0.615-0.729-1.302-0.722-2.136
			C71.446,43.028,71.433,35.939,71.433,28.853z M74.041,29.258c0,6.698,0.009,13.394-0.01,20.091
			c-0.002,0.729,0.154,1.329,0.646,1.892c3.002,3.425,6.544,6.134,10.664,8.082c4.809,2.276,9.875,3.256,15.188,3.18
			c3.311-0.051,6.535-0.524,9.687-1.496c4.521-1.39,8.545-3.696,12.088-6.829c1.031-0.918,1.998-1.907,2.888-2.969
			c0.474-0.56,0.766-1.131,0.671-1.875c-0.016-0.127-0.005-0.258-0.005-0.387c0-13.093,0-26.186,0-39.278
			c0-0.303-0.011-0.607,0-0.907c0.023-0.446-0.181-0.744-0.566-0.933c-0.966-0.476-1.922-0.981-2.914-1.402
			c-4.411-1.864-9.062-2.77-13.784-3.339c-2.187-0.267-4.388-0.376-6.595-0.357c-3.191,0.029-6.385-0.068-9.575,0.266
			c-2.492,0.261-4.97,0.585-7.415,1.112c-3.386,0.729-6.679,1.747-9.756,3.368c-1.396,0.734-1.208,0.467-1.208,1.946
			C74.039,16.034,74.041,22.648,74.041,29.258z"/>
		<path fill-rule="evenodd" clip-rule="evenodd" fill="#FFFFFF" d="M131.901,85.022c0.336-0.336,0.247-0.603,0.249-0.84
			c0.004-0.82-0.007-1.641-0.02-2.461c-0.006-0.193-0.127-0.311-0.328-0.328c-0.042-0.003-0.084-0.008-0.127-0.011
			c-0.386-0.029-0.867,0.075-1.134-0.116c-0.363-0.267-0.151-0.805-0.168-1.226c-0.019-0.689-0.004-1.382-0.006-2.074
			c-0.002-1.167-0.064-1.182,1.234-1.174c1.557,0.008,3.114,0,4.668,0.002c0.824,0,1.64-0.007,2.464,0.006
			c0.545,0.012,0.637,0.09,0.644,0.579c0.009,1.166,0,2.336,0.004,3.501c0,0.305-0.115,0.473-0.447,0.497
			c-0.424,0.029-0.929-0.172-1.245,0.125c-0.376,0.348-0.158,0.899-0.16,1.359c-0.016,3.847-0.011,7.694-0.009,11.54
			c0,1.178,0.009,1.17-1.113,1.163c-1.081-0.004-2.16,0.003-3.241-0.002c-0.303-0.002-0.606-0.014-0.901-0.05
			c-0.685-0.083-1.225-0.407-1.588-1c-0.203-0.33-0.393-0.67-0.578-1.013c-1.145-2.13-2.283-4.263-3.43-6.39
			c-0.161-0.298-0.263-0.64-0.552-0.856c-0.267,0.032-0.194,0.243-0.194,0.387c-0.006,1.252-0.008,2.507,0.003,3.758
			c0.003,0.456,0.084,0.518,0.529,0.549c0.425,0.027,0.859-0.065,1.278,0.081c0.225,0.316,0.135,0.676,0.138,1.012
			c0.009,0.992,0.012,1.988-0.006,2.982c-0.005,0.417-0.132,0.535-0.558,0.535c-1.987,0.009-3.976,0.008-5.963,0.008
			c-0.735,0-1.47,0-2.205-0.005c-0.312-0.004-0.471-0.182-0.472-0.487c-0.002-1.211,0-2.423-0.005-3.632
			c0-0.312,0.132-0.486,0.452-0.488c0.78-0.001,1.556-0.005,2.333-0.005c0.474,0,0.947,0,1.42-0.065
			c-0.589-0.298-1.233-0.205-1.853-0.293c-0.236-0.035-0.402-0.167-0.416-0.414c-0.021-0.343-0.023-0.691-0.023-1.035
			c-0.002-2.12,0-4.235-0.002-6.354c0-0.343-0.009-0.691-0.026-1.035c-0.012-0.189-0.127-0.309-0.312-0.351
			c-0.083-0.015-0.172-0.007-0.257-0.019c-0.414-0.062-0.93,0.201-1.219-0.189c-0.252-0.344-0.09-0.834-0.095-1.259
			c-0.017-0.864-0.013-1.729,0.003-2.594c0.004-0.417,0.114-0.529,0.554-0.534c1.686-0.011,3.368-0.008,5.058-0.009
			c0.518-0.002,1.034,0.014,1.556-0.002c1.164-0.031,1.945,0.502,2.466,1.538c0.701,1.389,1.468,2.739,2.206,4.111
			C130.956,83.273,131.408,84.107,131.901,85.022z"/>
		<path fill-rule="evenodd" clip-rule="evenodd" fill="#FFFFFF" d="M105.02,76.793c1.034,0,2.07-0.014,3.108,0.006
			c0.517,0.008,1.028,0.062,1.548,0.11c1.32,0.122,2.225,0.843,2.814,2.001c0.357,0.699,0.542,1.454,0.681,2.221
			c0.062,0.34,0.106,0.683,0.135,1.026c0.264,3.062,0.304,6.124-0.157,9.169c-0.112,0.724-0.315,1.433-0.652,2.093
			c-0.569,1.106-1.417,1.84-2.688,1.988c-0.602,0.069-1.201,0.143-1.805,0.147c-1.987,0.019-3.972,0.019-5.959,0
			c-0.601-0.004-1.203-0.079-1.801-0.147c-1.275-0.145-2.122-0.876-2.693-1.98c-0.336-0.661-0.534-1.372-0.651-2.093
			c-0.16-0.981-0.307-1.961-0.305-2.962c0.005-1.598-0.011-3.195,0.021-4.791c0.019-1.168,0.192-2.32,0.485-3.456
			c0.143-0.546,0.333-1.073,0.634-1.549c0.581-0.925,1.389-1.5,2.493-1.66c1.166-0.17,2.328-0.106,3.491-0.124
			C104.156,76.788,104.585,76.793,105.02,76.793z M107.361,86.215c-0.043-1.336-0.081-2.716-0.14-4.097
			c-0.018-0.392-0.174-0.56-0.562-0.571c-1.034-0.031-2.068-0.046-3.104-0.023c-0.599,0.016-0.717,0.159-0.754,0.807
			c-0.145,2.502-0.14,5.005-0.013,7.51c0.005,0.127,0.013,0.258,0.028,0.386c0.059,0.386,0.179,0.545,0.563,0.579
			c1.077,0.097,2.158,0.089,3.233,0.005c0.451-0.032,0.597-0.19,0.618-0.668C107.29,88.852,107.318,87.557,107.361,86.215z"/>
		<path fill-rule="evenodd" clip-rule="evenodd" fill="#FFFFFF" d="M66.501,81.378c0.532,0.353,0.991,0.237,1.396,0.359
			c0.223,0.065,0.377,0.195,0.384,0.447c0.003,0.303,0.006,0.603,0.006,0.907c0,2.247,0,4.494,0,6.741
			c0,0.216,0.004,0.433,0.004,0.649c-0.004,0.3,0.109,0.493,0.439,0.493c0.306,0.004,0.606,0.023,0.907,0.007
			c0.64-0.037,1.289,0.109,1.919-0.099c0.311-0.61,0.084-1.266,0.145-1.896c0.021-0.213-0.001-0.432,0.013-0.648
			c0.016-0.242,0.14-0.416,0.4-0.417c1.424-0.006,2.849-0.01,4.274,0c0.253,0,0.369,0.196,0.387,0.428
			c0.021,0.217,0.016,0.433,0.016,0.649c0.004,1.814,0.004,3.629,0,5.447c0,0.255-0.011,0.518-0.039,0.772
			c-0.019,0.189-0.154,0.305-0.342,0.32c-0.214,0.02-0.433,0.024-0.646,0.024c-4.755,0-9.508,0-14.264,0
			c-0.172,0-0.346-0.005-0.517-0.008c-0.323-0.004-0.467-0.189-0.469-0.487c-0.007-0.821-0.008-1.643-0.007-2.463
			c0-0.433,0.005-0.865,0.016-1.297c0.004-0.189,0.105-0.317,0.304-0.344c0.043-0.005,0.087-0.01,0.129-0.015
			c0.425-0.035,0.951,0.17,1.25-0.11c0.405-0.373,0.171-0.977,0.174-1.478c0.02-2.29,0.01-4.581,0.009-6.871
			c0-0.258-0.009-0.519-0.025-0.776c-0.014-0.2-0.141-0.291-0.332-0.322c-0.461-0.073-1.06,0.199-1.364-0.149
			c-0.372-0.421-0.136-1.068-0.154-1.617c-0.024-0.776-0.003-1.557,0.001-2.332c0.001-0.309,0.154-0.479,0.47-0.486
			c0.171-0.008,0.345-0.014,0.517-0.014c2.592,0,5.187-0.002,7.78,0c0.216,0,0.43,0.001,0.646,0.025
			c0.249,0.022,0.391,0.181,0.392,0.425c0.012,1.21,0.007,2.42,0.009,3.631c0.003,0.309-0.142,0.488-0.456,0.496
			c-0.562,0.008-1.123,0.006-1.684,0.008C67.68,81.378,67.174,81.378,66.501,81.378z"/>
		<path fill-rule="evenodd" clip-rule="evenodd" fill="#FFFFFF" d="M86.356,95.558c-1.427,0-2.851,0-4.279,0
			c-0.303-0.001-0.498-0.143-0.498-0.459c-0.004-1.255,0-2.506,0.004-3.761c0-0.262,0.163-0.375,0.409-0.386
			c0.085-0.006,0.174,0.003,0.259-0.008c0.415-0.057,0.911,0.193,1.226-0.178c0.255-0.305,0.104-0.749,0.104-1.131
			c0.012-2.331,0.006-4.667,0.005-7c0-0.301-0.006-0.604-0.029-0.905c-0.014-0.191-0.138-0.318-0.328-0.326
			c-0.346-0.021-0.691-0.015-1.035-0.031c-0.547-0.021-0.614-0.073-0.618-0.579c-0.011-0.823-0.008-1.645-0.003-2.464
			c0-0.39,0.003-0.779,0.019-1.166c0.012-0.189,0.137-0.314,0.326-0.337c0.212-0.027,0.43-0.034,0.645-0.034
			c2.638-0.003,5.272-0.001,7.907-0.001c0.172,0,0.346,0.008,0.52,0.018c0.245,0.015,0.419,0.143,0.422,0.394
			c0.007,1.25,0.002,2.505,0.002,3.756c0,0.252-0.129,0.4-0.39,0.405c-0.343,0.01-0.689,0-1.037,0.016
			c-0.501,0.023-0.578,0.089-0.58,0.637c-0.008,2.764-0.008,5.528,0,8.294c0.002,0.552,0.068,0.601,0.583,0.631
			c0.429,0.023,0.958-0.101,1.255,0.11c0.407,0.288,0.15,0.884,0.169,1.343c0.033,0.821,0.021,1.641,0.007,2.464
			c-0.009,0.621-0.072,0.685-0.657,0.696c-0.732,0.012-1.466,0.004-2.205,0.004c-0.73,0-1.466,0-2.2,0
			C86.356,95.56,86.356,95.56,86.356,95.558z"/>
		<path fill-rule="evenodd" clip-rule="evenodd" fill="#FFFFFF" d="M98.416,126.653c-1.774-0.073-3.303-0.282-4.738-0.956
			c-0.909-0.427-1.724-0.986-2.337-1.794c-0.487-0.635-0.787-1.343-0.718-2.16c0.067-0.825,0.73-1.365,1.498-1.23
			c0.122,0.02,0.243,0.077,0.352,0.141c0.329,0.197,0.431,0.583,0.205,0.883c-0.205,0.274-0.46,0.506-0.557,0.857
			c-0.145,0.518,0.006,0.965,0.46,1.222c0.428,0.244,0.892,0.323,1.377,0.18c0.592-0.177,1.1-0.5,1.479-0.99
			c0.396-0.511,0.768-1.04,1.145-1.565c0.329-0.458,0.648-0.919,1.082-1.288c0.655-0.557,1.398-0.615,2.185-0.371
			c0.427,0.138,0.583,0.477,0.485,0.917c-0.129,0.56-0.416,1.039-0.769,1.479c-0.936,1.169-2.075,2.063-3.522,2.525
			c-0.243,0.079-0.479,0.174-0.711,0.285c-0.049,0.023-0.055,0.144-0.073,0.22c-0.021,0.101,0.031,0.161,0.141,0.182
			c0.608,0.117,1.195,0.03,1.78-0.155c1.14-0.363,2.092-1.024,2.854-1.934c0.582-0.69,1.081-1.448,1.621-2.175
			c0.334-0.452,0.643-0.923,1.005-1.348c1.438-1.681,4.113-1.768,5.692-0.809c1.49,0.908,2.199,2.716,1.705,4.381
			c-0.408,1.371-1.996,2.29-3.382,1.95c-0.082-0.019-0.161-0.058-0.24-0.093c-0.323-0.135-0.52-0.407-0.472-0.693
			c0.053-0.318,0.213-0.573,0.548-0.647c0.206-0.044,0.431-0.025,0.643-0.062c1.186-0.204,1.703-0.873,1.635-2.077
			c-0.069-1.139-0.842-2.042-1.95-2.289c-1.424-0.317-3.148,0.456-3.881,1.736c-0.138,0.243-0.178,0.482-0.078,0.742
			c0.11,0.282,0.244,0.554,0.331,0.841c0.373,1.228-0.008,2.324-1.053,3.074c-0.573,0.409-1.223,0.656-1.897,0.791
			C99.589,126.558,98.893,126.596,98.416,126.653z"/>
		<path fill-rule="evenodd" clip-rule="evenodd" fill="#FFFFFF" d="M96.53,106.28c0-1.035-0.006-2.069,0.005-3.104
			c0-0.344,0-0.691,0.058-1.029c0.129-0.75,0.622-1.27,1.378-1.327c0.853-0.061,1.723-0.058,2.577,0.008
			c0.645,0.05,1.089,0.459,1.297,1.1c0.12,0.379,0.149,0.761,0.149,1.149c0,2.154,0.016,4.308-0.005,6.462
			c-0.021,1.693-0.573,2.249-2.242,2.312c-0.601,0.023-1.204,0.046-1.805-0.088c-0.843-0.189-1.273-0.624-1.371-1.481
			c-0.048-0.424-0.036-0.859-0.036-1.29C96.526,108.088,96.53,107.183,96.53,106.28z M98.694,106.376c0,0.772-0.004,1.548,0,2.324
			c0.001,0.301-0.007,0.606,0.042,0.9c0.045,0.242,0.26,0.314,0.497,0.312c0.229-0.003,0.431-0.05,0.485-0.306
			c0.028-0.125,0.032-0.259,0.032-0.384c0.004-1.938,0.004-3.878,0.004-5.816c0-0.129-0.011-0.258-0.026-0.384
			c-0.027-0.25-0.174-0.377-0.426-0.386c-0.329-0.013-0.537,0.116-0.573,0.382c-0.029,0.213-0.034,0.429-0.035,0.643
			C98.69,104.566,98.694,105.469,98.694,106.376z"/>
		<path fill-rule="evenodd" clip-rule="evenodd" fill="#FFFFFF" d="M106.629,100.832c1.141,0,2.173-0.037,3.203,0.009
			c1.39,0.064,2.086,0.718,2.119,2.087c0.049,2.239,0.049,4.479,0,6.718c-0.033,1.39-0.719,2.021-2.11,2.067
			c-0.946,0.033-1.894,0.009-2.841,0.002c-0.247-0.004-0.396-0.143-0.406-0.396c-0.015-0.171-0.021-0.344-0.021-0.515
			c0-3.058,0-6.116,0.005-9.175C106.577,101.419,106.604,101.21,106.629,100.832z M109.8,106.235c0-0.858,0.008-1.72-0.003-2.581
			c0-0.212,0.003-0.453-0.092-0.627c-0.128-0.231-0.388-0.322-0.668-0.284c-0.23,0.035-0.248,0.227-0.248,0.388
			c-0.006,2.11-0.006,4.218,0,6.325c0,0.163,0.006,0.35,0.238,0.386c0.281,0.047,0.54-0.022,0.666-0.271
			c0.09-0.182,0.101-0.416,0.104-0.624C109.808,108.044,109.8,107.139,109.8,106.235z"/>
		<path fill-rule="evenodd" clip-rule="evenodd" fill="#FFFFFF" d="M91.931,106.365c0,1.035,0.003,2.067-0.003,3.102
			c-0.002,0.301,0.014,0.608-0.041,0.901c-0.141,0.742-0.55,1.25-1.335,1.386c-0.901,0.155-1.799,0.155-2.697-0.003
			c-0.787-0.139-1.185-0.655-1.329-1.393c-0.049-0.251-0.038-0.515-0.038-0.773c-0.003-2.199-0.003-4.396,0-6.594
			c0-0.172,0-0.344,0.009-0.516c0.063-1.055,0.798-1.7,1.748-1.695c0.561,0.002,1.123-0.025,1.681-0.005
			c1.394,0.045,1.957,0.6,1.999,1.969c0.023,0.777,0.007,1.552,0.007,2.328C91.931,105.502,91.931,105.932,91.931,106.365z
			 M89.755,106.365c0.002,0,0.004,0,0.004,0c0-0.865,0.003-1.726,0-2.591c-0.002-0.258-0.006-0.521-0.044-0.774
			c-0.035-0.245-0.209-0.355-0.453-0.369c-0.313-0.016-0.531,0.124-0.566,0.396c-0.027,0.169-0.036,0.343-0.036,0.515
			c-0.003,1.857-0.003,3.717,0,5.575c0,0.17,0.009,0.346,0.049,0.51c0.049,0.182,0.196,0.267,0.386,0.29
			c0.419,0.054,0.65-0.121,0.657-0.571C89.767,108.353,89.755,107.358,89.755,106.365z"/>
		<path fill-rule="evenodd" clip-rule="evenodd" fill="#FFFFFF" d="M116.541,108.971c0-0.087,0-0.172,0-0.257
			c0.006-1.295-0.097-1.198,1.167-1.206c0.044,0,0.084,0,0.129,0c0.803,0.015,0.805,0.015,0.823,0.768
			c0.008,0.431,0,0.862,0.019,1.292c0.013,0.263,0.208,0.354,0.438,0.377c0.295,0.026,0.504-0.14,0.526-0.423
			c0.01-0.172-0.007-0.343,0.014-0.515c0.087-0.753-0.13-1.329-0.829-1.729c-0.479-0.278-0.893-0.673-1.35-0.997
			c-0.647-0.459-0.981-1.054-0.94-1.867c0.032-0.647,0.003-1.293,0.021-1.94c0.024-0.977,0.72-1.699,1.737-1.691
			c0.608,0.003,1.212-0.032,1.814,0.013c1.004,0.075,1.545,0.64,1.632,1.657c0.029,0.341,0.016,0.689,0.016,1.032
			c-0.006,1.364,0.14,1.263-1.236,1.271c-0.886,0.006-0.884-0.052-0.884-0.841c-0.001-0.343-0.014-0.69-0.065-1.027
			c-0.028-0.177-0.209-0.253-0.397-0.259c-0.184-0.004-0.36,0.054-0.423,0.226c-0.288,0.733-0.05,1.564,0.587,2.052
			c0.516,0.394,1.034,0.776,1.56,1.155c0.599,0.432,0.926,0.986,0.889,1.756c-0.035,0.775,0.021,1.553-0.027,2.327
			c-0.058,0.978-0.529,1.477-1.505,1.638c-0.77,0.129-1.546,0.137-2.312-0.023c-0.834-0.174-1.273-0.646-1.365-1.494
			c-0.047-0.426-0.01-0.861-0.01-1.293C116.561,108.971,116.552,108.971,116.541,108.971z"/>
		<path fill-rule="evenodd" clip-rule="evenodd" fill="#FFFFFF" d="M78.05,106.321c0-1.381,0-2.759,0-4.141
			c0.002-0.3,0.005-0.603,0.017-0.905c0.013-0.314,0.188-0.447,0.5-0.447c0.773,0.004,1.551,0,2.327-0.001
			c1.3-0.007,1.157-0.029,1.158,1.216c0,0.708-0.043,0.743-0.701,0.778c-0.218,0.011-0.432,0.007-0.647,0.011
			c-0.326,0.007-0.441,0.201-0.437,0.501c0.002,0.216-0.016,0.431,0,0.646c0.023,0.381-0.135,0.815,0.092,1.139
			c0.253,0.367,0.714,0.154,1.078,0.201c0.411,0.055,0.512,0.143,0.536,0.565c0.011,0.13,0.007,0.259,0.005,0.388
			c-0.008,0.903,0.107,1.062-0.963,1.018c-0.044-0.002-0.087-0.002-0.131,0c-0.555,0.033-0.605,0.067-0.617,0.577
			c-0.011,0.473-0.004,0.945-0.004,1.421c0,0.301,0.017,0.606-0.006,0.905c-0.035,0.464,0.222,1.067-0.127,1.364
			c-0.47,0.398-1.151,0.132-1.737,0.145c-0.187,0.002-0.308-0.151-0.317-0.337c-0.021-0.302-0.023-0.605-0.023-0.906
			C78.05,109.079,78.05,107.698,78.05,106.321z"/>
		<path fill-rule="evenodd" clip-rule="evenodd" fill="#FFFFFF" d="M74.041,29.258c0-6.61-0.002-13.224,0.003-19.833
			c0-1.479-0.188-1.212,1.208-1.946c3.077-1.622,6.37-2.639,9.756-3.368c2.445-0.527,4.923-0.852,7.415-1.112
			c3.19-0.334,6.384-0.237,9.575-0.266c2.207-0.019,4.408,0.091,6.595,0.357c4.723,0.569,9.373,1.475,13.784,3.339
			c0.992,0.421,1.948,0.926,2.914,1.402c0.386,0.189,0.59,0.487,0.566,0.933c-0.011,0.3,0,0.604,0,0.907c0,13.092,0,26.185,0,39.278
			c0,0.129-0.011,0.26,0.005,0.387c0.095,0.743-0.197,1.314-0.671,1.875c-0.89,1.062-1.856,2.05-2.888,2.969
			c-3.543,3.133-7.567,5.439-12.088,6.829c-3.151,0.972-6.376,1.445-9.687,1.496c-5.312,0.076-10.379-0.904-15.188-3.18
			c-4.12-1.948-7.662-4.657-10.664-8.082c-0.492-0.563-0.648-1.163-0.646-1.892C74.05,42.652,74.041,35.956,74.041,29.258z
			 M87.267,44.531c-0.046-0.037-0.089-0.071-0.135-0.108c-0.027,0.077,0.007,0.125,0.104,0.138
			c-0.067,0.165-0.046,0.308,0.105,0.417c0.762,1.266,1.747,2.357,2.723,3.456c0.919,1.031,1.841,2.058,2.643,3.192
			c0.573,0.815,1.063,1.672,1.401,2.614c0.508,1.398,0.519,2.784-0.011,4.18c-0.119,0.311-0.38,0.59-0.295,0.959
			c0.034,0.035,0.059,0.081,0.092,0.089c2.076,0.439,4.179,0.621,6.298,0.595c0.584-0.008,0.633-0.05,0.809-0.624
			c0.348-1.118,0.552-2.267,0.701-3.422c0.179-1.417,0.201-2.846,0.052-4.268c-0.178-1.732-0.949-3.21-2.08-4.513
			c-0.827-0.948-1.768-1.778-2.72-2.593c-0.95-0.814-1.893-1.638-2.74-2.569c-1.457-1.601-2.249-3.458-2.222-5.641
			c0.002-0.198,0.087-0.423-0.174-0.622c-0.355,0.238-0.529,0.632-0.753,0.986c-0.205,0.326-0.424,0.648-0.661,0.954
			c-0.125,0.155-0.311,0.136-0.437-0.023c-0.307-0.378-0.458-0.841-0.554-1.299c-0.432-1.999-0.291-3.946,0.606-5.812
			c0.081-0.166,0.287-0.305,0.168-0.585c-0.819-0.018-1.458,0.454-2.139,0.793c-0.316,0.155-0.624,0.647-0.972,0.363
			c-0.253-0.208,0.062-0.637,0.147-0.961c0.174-0.622,0.347-1.25,0.572-1.854c0.18-0.482,0.398-0.961,0.672-1.398
			c0.822-1.293,1.757-1.579,2.959-1.266c0.421,0.112,0.846,0.166,1.279,0.135c0.393-0.027,0.771-0.231,0.725-0.385
			c-0.084-0.294-0.367-0.342-0.599-0.439c-0.837-0.345-1.684-0.666-2.511-1.024c-0.793-0.347-1.56-0.752-2.153-1.409
			c-0.914-1.016-0.999-1.63-0.176-2.746c1.746-2.37,4.128-3.502,7.06-3.27c1.65,0.131,2.918,1.004,3.651,2.541
			c0.135,0.289-0.01,0.49-0.33,0.532c-0.493,0.066-0.942-0.054-1.366-0.295c-0.413-0.233-0.813-0.488-1.226-0.726
			c-0.62-0.36-1.281-0.465-1.996-0.337c-1.521,0.27-2.56,1.16-3.303,2.463c-0.131,0.229-0.093,0.421,0.126,0.546
			c0.714,0.403,1.437,0.786,2.149,1.19c1.465,0.846,2.465,1.888,1.617,4.212c-0.337,0.934-0.659,1.872-0.992,2.807
			c-0.278,0.78-0.469,1.573-0.509,2.399c-0.023,0.565-0.003,1.127,0.26,1.644c0.072,0.139,0.099,0.37,0.333,0.316
			c0.107-0.025,0.229-0.117,0.289-0.216c0.883-1.382,1.72-2.793,2.321-4.33c0.59-1.507,0.892-3.062,0.777-4.689
			c-0.021-0.297-0.002-0.593-0.002-0.891c0.241-0.085,0.416,0.066,0.602,0.151c0.527,0.238,1.076,0.299,1.643,0.228
			c0.866-0.112,1.002-0.379,0.433-1.046c-0.12-0.143-0.329-0.286-0.181-0.601c0.811-0.059,1.393-0.529,1.766-1.272
			c0.077-0.151,0.188-0.29,0.286-0.433c0.155-0.226,0.357-0.366,0.644-0.373c0.256-0.005,0.516-0.024,0.777-0.021
			c1.751,0.035,3.256,0.751,4.666,1.715c0.384,0.264,0.753,0.556,1.111,0.824c0.143-0.142,0.118-0.272,0.08-0.396
			c-0.153-0.529-0.502-0.896-0.968-1.162c-0.376-0.212-0.769-0.397-1.133-0.631c-0.965-0.631-0.938-1.09,0.087-1.673
			c0.852-0.484,1.795-0.66,2.749-0.593c1.219,0.087,1.209,0.187,0.971,1.229c-0.06,0.255-0.122,0.506-0.204,0.75
			c-0.087,0.249-0.302,0.312-0.523,0.231c-0.322-0.116-0.628-0.28-0.938-0.419c-0.354-0.16-0.702-0.334-1.063-0.462
			c-0.266-0.092-0.509,0.004-0.678,0.248c0.151,0.29,0.465,0.36,0.711,0.518c0.434,0.277,0.894,0.527,1.313,0.822
			c1.055,0.741,1.65,1.745,1.674,3.057c0.002,0.129,0.028,0.263,0.004,0.386c-0.099,0.521,0.198,0.79,0.602,1.016
			c0.792,0.442,1.574,0.896,2.36,1.347c0.973,0.564,1.917,1.171,2.785,1.889c0.941,0.775,1.74,1.671,2.325,2.757
			c0.246,0.456,0.161,0.641-0.34,0.676c-1.552,0.108-3.103,0.179-4.646-0.148c-0.186-0.04-0.423-0.223-0.557,0.055
			c-0.098,0.201-0.042,0.429,0.051,0.629c0.176,0.387,0.481,0.59,0.913,0.606c0.339,0.012,0.68-0.066,1.005,0.135
			c1.411,0.858,1.781,2.413,0.88,3.807c-0.209,0.324-0.461,0.629-0.74,0.895c-1.117,1.074-2.447,1.746-3.966,2.062
			c-0.324,0.066-0.569,0.031-0.801-0.247c-0.238-0.284-0.543-0.177-0.816-0.008c-0.065-0.058-0.129-0.116-0.197-0.175
			c-0.006-0.354-0.15-0.555-0.541-0.547c-0.291,0.004-0.494,0.402-0.867,0.15c0.063-0.228,0.145-0.463,0.187-0.703
			c0.072-0.382-0.169-0.617-0.516-0.492c-0.36,0.132-0.705,0.315-1.062,0.472c-0.263,0.118-0.528,0.164-0.791,0.009
			c0.081-0.262,0.27-0.297,0.426-0.348c0.616-0.198,1.037-0.629,1.318-1.177c0.405-0.792,0.759-1.61,1.173-2.496
			c-0.816-0.205-1.522-0.382-2.229-0.562c-1.302-0.329-2.583-0.691-3.549-1.73c-0.287-0.302-0.714-0.256-1.186,0.032
			c-0.298,0.177-0.37,0.442-0.311,0.775c0.179,0.978,0.35,1.958,0.499,2.939c0.093,0.579-0.186,0.773-0.733,0.536
			c-0.486-0.208-0.894-0.527-1.191-0.967c-0.241-0.357-0.451-0.735-0.683-1.098c-0.278-0.437-0.556-0.875-0.851-1.297
			c-0.062-0.087-0.211-0.15-0.322-0.155c-0.162-0.009-0.166,0.159-0.191,0.275c-0.419,1.834-0.05,3.509,1.043,5.035
			c0.511,0.706,1.136,1.297,1.748,1.908c0.578,0.582,1.171,1.153,1.709,1.771c0.63,0.726,1.101,1.548,1.255,2.517
			c0.028,0.187,0.134,0.415-0.188,0.606c-1.047-1.062-2.362-1.804-3.592-2.668c-0.391-0.272-0.763-0.571-1.121-0.884
			c-1.258-1.103-1.965-2.506-2.12-4.162c-0.078-0.771-0.08-1.552-0.066-2.332c0.018-1.382,0.257-2.749,0.461-4.115
			c0.076-0.491,0.187-0.981,0.112-1.484c-0.108,0.009-0.179-0.002-0.188,0.019c-1.31,2.28-2.162,4.689-2.259,7.349
			c-0.102,2.896,0.913,5.239,3.289,6.937c0.806,0.576,1.646,1.109,2.492,1.625c0.885,0.539,1.804,1.021,2.692,1.55
			c0.746,0.437,1.471,0.912,2.101,1.505c1.618,1.521,1.988,3.414,1.066,5.426c-0.492,1.076-1.219,1.983-2.024,2.837
			c-0.802,0.848-1.702,1.59-2.61,2.323c-0.16,0.13-0.396,0.208-0.343,0.541c1.663-0.1,3.315-0.309,4.948-0.65
			c2.143-0.447,2.146-0.447,3.581-2.039c1.107-1.226,2.061-2.55,2.637-4.121c0.834-2.271,0.467-4.32-1.062-6.185
			c-0.215-0.259-0.54-0.44-0.617-0.826c0.301-0.269,0.663-0.334,1.05-0.371c1.602-0.15,3.028,0.495,4.542,1.039
			c0.354-0.702,0.707-1.343,1.001-2.008c0.534-1.207,0.648-2.415-0.109-3.59c-0.046-0.073-0.084-0.15-0.123-0.227
			c-0.337-0.676-0.324-1.321,0.142-1.944c0.312-0.419,0.602-0.865,0.696-1.376c0.104-0.548,0.156-1.115,0.154-1.672
			c-0.008-0.953,0.186-1.796,0.942-2.445c0.69-0.588,0.724-1.314,0.432-2.118c-0.345-0.95-0.827-1.801-1.532-2.529
			c-0.844-0.877-1.806-1.61-2.812-2.282c-0.863-0.575-1.734-1.136-2.605-1.695c-0.273-0.175-0.405-0.397-0.458-0.725
			c-0.275-1.729-0.261-3.449,0.12-5.154c0.277-1.248,0.467-1.286-1.022-1.846c-0.078-0.03-0.164-0.058-0.242-0.087
			c-0.229-0.087-0.338-0.243-0.292-0.496c0.038-0.212,0.093-0.425,0.103-0.637c0.084-1.52-0.485-2.695-1.834-3.449
			c-0.302-0.168-0.602-0.342-0.927-0.454c-0.369-0.128-0.547-0.34-0.623-0.728c-0.263-1.257-1.11-2.006-2.253-2.477
			c-1.342-0.556-2.676-0.622-3.983,0.116c-0.104,0.058-0.219,0.089-0.37,0.151c-0.366-0.806-0.747-1.579-1.068-2.376
			c-0.157-0.389-0.4-0.51-0.784-0.533c-1.165-0.075-2.331,0.021-3.497,0.091c-4.145,0.246-8.077,1.293-11.794,3.151
			c-2.684,1.343-5.096,3.081-7.206,5.217c-0.211,0.21-0.464,0.392-0.529,0.716c-0.073,0.334,0.019,1.843,0.149,2.367
			c0.357-0.131,0.483-0.479,0.695-0.734c1.101-1.342,2.282-2.594,3.641-3.679c1.559-1.239,3.289-2.048,5.287-2.243
			c1.918-0.188,3.788-0.02,5.612,0.64c0.714,0.259,1.297,0.67,1.738,1.286c0.101,0.142,0.216,0.302,0.088,0.463
			c-0.064,0.082-0.214,0.131-0.325,0.136c-0.821,0.017-1.641,0.026-2.461,0.026c-1.297,0-2.594-0.035-3.89-0.01
			c-1.211,0.021-2.418,0.149-3.584,0.498c-0.86,0.261-1.703,0.592-2.251,1.458c0.174-0.016,0.311,0,0.426-0.042
			c1.375-0.479,2.796-0.485,4.222-0.396c0.74,0.045,1.446,0.233,2.136,0.5c0.447,0.175,0.857,0.409,1.185,0.764
			c0.113,0.124,0.261,0.246,0.155,0.444c-0.071,0.141-0.213,0.109-0.33,0.109c-1.08,0.001-2.161-0.055-3.238,0.007
			c-1.864,0.108-3.677,0.506-5.386,1.282c-0.862,0.394-1.709,0.824-2.291,1.644c0.34,0.109,0.594-0.1,0.863-0.192
			c0.652-0.224,1.299-0.469,1.945-0.703c0.792-0.282,1.607-0.315,2.431-0.236c0.127,0.012,0.261,0.027,0.381,0.07
			c0.064,0.027,0.141,0.104,0.151,0.169c0.011,0.066-0.029,0.186-0.08,0.212c-0.315,0.147-0.639,0.263-0.952,0.408
			c-2.275,1.048-4.194,2.556-5.817,4.453c-0.354,0.415-0.561,0.839-0.528,1.401c0.042,0.821,0.007,1.643,0.013,2.466
			c0,0.148-0.063,0.349,0.241,0.369c0.261-0.309,0.532-0.642,0.814-0.963c1.306-1.495,2.898-2.574,4.727-3.314
			c0.187-0.073,0.401-0.204,0.59-0.023c0.145,0.139,0.056,0.332,0.014,0.49c-0.629,2.255-0.966,4.558-1.128,6.89
			c-0.158,2.259-0.012,4.49,0.653,6.665c0.295,0.958,0.74,1.842,1.396,2.61c0.571,0.675,1.004,0.954,1.844,1.207
			c-1.622-4.079-1.71-4.361-1.998-6.363c-0.406-2.81-0.197-5.195,0.565-6.458c0.219,0.193,0.188,0.47,0.209,0.717
			c0.218,2.376,1.074,4.522,2.362,6.509c0.923,1.419,2.005,2.71,3.219,3.886c1.459,1.413,2.956,2.785,4.436,4.173
			c1.139,1.062,2.243,2.156,3.27,3.326c1.298,1.479,1.825,3.226,1.734,5.148c-0.087,1.88-0.618,3.652-1.599,5.278
			c-0.087,0.143-0.178,0.293-0.433,0.253c-0.051-0.542-0.11-1.097-0.155-1.655c-0.221-2.747-1.375-5.046-3.297-6.993
			c-0.821-0.833-1.726-1.57-2.64-2.295c-1.08-0.861-2.155-1.728-3.235-2.591C87.644,44.706,87.514,44.542,87.267,44.531z
			 M77.655,35.214c-1.162,0.291-1.492,0.646-1.492,1.614c-0.009,3.714,0.016,7.424-0.019,11.136
			c-0.006,0.705,0.182,1.257,0.652,1.75c0.325,0.343,0.622,0.716,0.95,1.058c4.111,4.287,9.09,7.063,14.848,8.47
			c0.125,0.029,0.255,0.052,0.379,0.068c0.342,0.048,0.474-0.093,0.41-0.429c-0.245-1.3-0.795-2.455-1.646-3.47
			c-0.558-0.663-1.187-1.25-1.848-1.807c-0.662-0.554-1.334-1.101-1.99-1.656c-1.347-1.142-2.398-2.469-2.733-4.27
			c-0.112-0.593-0.363-1.155-0.765-1.625c-0.081-0.095-0.191-0.195-0.332-0.116c-0.059,0.035-0.114,0.12-0.126,0.188
			c-0.129,0.838-0.254,1.68-0.374,2.484c-0.249,0.095-0.393,0.002-0.543-0.087c-0.976-0.579-1.813-1.316-2.528-2.196
			c-1.651-2.037-2.522-4.39-2.842-6.973C77.486,37.98,77.534,36.606,77.655,35.214z M112.275,30.469
			c-0.051-0.133-0.064-0.274-0.144-0.363c-0.284-0.32-0.574-0.645-0.895-0.93c-0.974-0.873-2.108-1.488-3.278-2.051
			c-0.386-0.184-0.772-0.378-1.154-0.575c-0.131-0.072-0.167-0.22-0.109-0.328c0.121-0.229,0.275-0.438,0.424-0.648
			c0.108-0.151,0.155-0.31,0.093-0.483c-0.472-1.219-1.225-2.171-2.517-2.589c-0.092-0.031-0.224,0.058-0.339,0.092
			c0.028,0.082,0.037,0.182,0.092,0.236c0.303,0.303,0.642,0.575,0.924,0.896c0.258,0.301,0.214,0.635-0.035,0.938
			c-0.344,0.413-0.822,0.61-1.285,0.841c-0.319,0.159-0.918-0.047-0.928,0.44c-0.008,0.278,0.532,0.352,0.837,0.502
			c0.077,0.039,0.157,0.078,0.219,0.135c0.366,0.36,0.773,0.421,1.289,0.382c1.066-0.085,1.676,0.261,2.623,1.002
			c0.716,0.56,1.37,1.182,2.055,1.774C110.745,30.259,111.387,30.68,112.275,30.469z M102.766,27.2
			c-0.354,0.003-0.613,0.048-0.779,0.273c-0.193,0.259-0.025,0.506,0.097,0.711c0.128,0.214,0.32,0.405,0.521,0.555
			c0.219,0.16,0.383,0.109,0.412-0.206c0.021-0.246,0.19-0.389,0.423-0.413c0.252-0.025,0.513-0.011,0.77-0.014
			c0.111-0.001,0.162-0.054,0.148-0.158c-0.003-0.041-0.007-0.097-0.026-0.116C103.832,27.485,103.281,27.265,102.766,27.2z"/>
		<path fill-rule="evenodd" clip-rule="evenodd" fill="#C1032D" d="M107.361,86.215c-0.043,1.342-0.071,2.637-0.13,3.928
			c-0.021,0.478-0.167,0.636-0.618,0.668c-1.075,0.084-2.156,0.091-3.233-0.005c-0.385-0.034-0.505-0.193-0.563-0.579
			c-0.016-0.127-0.023-0.258-0.028-0.386c-0.127-2.504-0.132-5.008,0.013-7.51c0.037-0.648,0.155-0.791,0.754-0.807
			c1.036-0.023,2.07-0.008,3.104,0.023c0.389,0.012,0.545,0.18,0.562,0.571C107.28,83.5,107.318,84.879,107.361,86.215z"/>
		<path fill-rule="evenodd" clip-rule="evenodd" fill="#C1032D" d="M98.694,106.376c0-0.908-0.004-1.811,0-2.716
			c0.001-0.214,0.006-0.43,0.035-0.643c0.036-0.266,0.244-0.395,0.573-0.382c0.252,0.008,0.398,0.135,0.426,0.386
			c0.016,0.126,0.026,0.255,0.026,0.384c0,1.938,0,3.879-0.004,5.816c0,0.125-0.004,0.259-0.032,0.384
			c-0.055,0.256-0.256,0.303-0.485,0.306c-0.237,0.002-0.452-0.069-0.497-0.312c-0.049-0.294-0.041-0.599-0.042-0.9
			C98.69,107.924,98.694,107.148,98.694,106.376z"/>
		<path fill-rule="evenodd" clip-rule="evenodd" fill="#C1032D" d="M109.8,106.235c0,0.904,0.008,1.81-0.003,2.713
			c-0.003,0.208-0.014,0.442-0.104,0.624c-0.126,0.249-0.385,0.318-0.666,0.271c-0.232-0.036-0.238-0.224-0.238-0.386
			c-0.006-2.107-0.006-4.215,0-6.325c0-0.162,0.018-0.354,0.248-0.388c0.28-0.038,0.54,0.053,0.668,0.284
			c0.095,0.174,0.092,0.415,0.092,0.627C109.808,104.515,109.8,105.376,109.8,106.235z"/>
		<path fill-rule="evenodd" clip-rule="evenodd" fill="#C1032D" d="M89.755,106.365c0,0.994,0.012,1.988-0.004,2.98
			c-0.007,0.45-0.238,0.625-0.657,0.571c-0.189-0.023-0.337-0.108-0.386-0.29c-0.04-0.164-0.049-0.339-0.049-0.51
			c-0.003-1.858-0.003-3.718,0-5.575c0-0.171,0.009-0.345,0.036-0.515c0.035-0.272,0.253-0.413,0.566-0.396
			c0.244,0.014,0.418,0.124,0.453,0.369c0.038,0.253,0.042,0.516,0.044,0.774c0.003,0.865,0,1.726,0,2.591
			C89.759,106.365,89.757,106.365,89.755,106.365z"/>
		<path fill-rule="evenodd" clip-rule="evenodd" fill="#C1032D" d="M109.736,40.283c0.273-0.169,0.578-0.276,0.816,0.008
			c0.231,0.278,0.477,0.313,0.801,0.247c1.519-0.316,2.849-0.988,3.966-2.062c0.279-0.266,0.531-0.571,0.74-0.895
			c0.901-1.394,0.531-2.948-0.88-3.807c-0.325-0.201-0.666-0.123-1.005-0.135c-0.432-0.016-0.737-0.22-0.913-0.606
			c-0.093-0.2-0.148-0.428-0.051-0.629c0.134-0.278,0.371-0.095,0.557-0.055c1.543,0.328,3.094,0.256,4.646,0.148
			c0.501-0.035,0.586-0.22,0.34-0.676c-0.585-1.085-1.384-1.981-2.325-2.757c-0.868-0.718-1.812-1.324-2.785-1.889
			c-0.786-0.451-1.568-0.904-2.36-1.347c-0.403-0.226-0.7-0.494-0.602-1.016c0.024-0.123-0.002-0.256-0.004-0.386
			c-0.023-1.312-0.619-2.316-1.674-3.057c-0.42-0.295-0.88-0.545-1.313-0.822c-0.246-0.157-0.56-0.228-0.711-0.518
			c0.169-0.243,0.412-0.34,0.678-0.248c0.361,0.128,0.709,0.302,1.063,0.462c0.311,0.139,0.616,0.303,0.938,0.419
			c0.222,0.081,0.437,0.017,0.523-0.231c0.082-0.244,0.145-0.495,0.204-0.75c0.238-1.042,0.248-1.143-0.971-1.229
			c-0.954-0.067-1.897,0.108-2.749,0.593c-1.025,0.583-1.052,1.042-0.087,1.673c0.364,0.234,0.757,0.419,1.133,0.631
			c0.466,0.266,0.814,0.633,0.968,1.162c0.038,0.124,0.062,0.254-0.08,0.396c-0.358-0.268-0.728-0.56-1.111-0.824
			c-1.41-0.963-2.915-1.68-4.666-1.715c-0.262-0.003-0.521,0.016-0.777,0.021c-0.286,0.007-0.488,0.147-0.644,0.373
			c-0.099,0.143-0.209,0.282-0.286,0.433c-0.373,0.743-0.955,1.213-1.766,1.272c-0.148,0.315,0.061,0.458,0.181,0.601
			c0.569,0.667,0.434,0.934-0.433,1.046c-0.566,0.071-1.115,0.01-1.643-0.228c-0.186-0.085-0.36-0.236-0.602-0.151
			c0,0.298-0.02,0.594,0.002,0.891c0.114,1.627-0.188,3.182-0.777,4.689c-0.602,1.537-1.438,2.948-2.321,4.33
			c-0.06,0.099-0.182,0.191-0.289,0.216c-0.234,0.054-0.261-0.177-0.333-0.316c-0.263-0.516-0.283-1.078-0.26-1.644
			c0.04-0.826,0.23-1.619,0.509-2.399c0.333-0.935,0.655-1.873,0.992-2.807c0.848-2.325-0.152-3.366-1.617-4.212
			c-0.713-0.405-1.436-0.787-2.149-1.19c-0.219-0.125-0.257-0.317-0.126-0.546c0.743-1.303,1.782-2.193,3.303-2.463
			c0.715-0.127,1.376-0.023,1.996,0.337c0.412,0.238,0.812,0.493,1.226,0.726c0.424,0.241,0.873,0.361,1.366,0.295
			c0.32-0.042,0.465-0.243,0.33-0.532c-0.733-1.537-2.001-2.41-3.651-2.541c-2.932-0.232-5.313,0.9-7.06,3.27
			c-0.823,1.116-0.738,1.73,0.176,2.746c0.594,0.656,1.36,1.062,2.153,1.409c0.827,0.358,1.674,0.68,2.511,1.024
			c0.231,0.097,0.515,0.145,0.599,0.439c0.047,0.154-0.332,0.358-0.725,0.385c-0.434,0.031-0.858-0.022-1.279-0.135
			c-1.202-0.313-2.137-0.027-2.959,1.266c-0.273,0.437-0.492,0.916-0.672,1.398c-0.226,0.604-0.398,1.232-0.572,1.854
			c-0.086,0.324-0.4,0.752-0.147,0.961c0.348,0.284,0.655-0.208,0.972-0.363c0.681-0.339,1.319-0.811,2.139-0.793
			c0.119,0.28-0.087,0.419-0.168,0.585c-0.897,1.866-1.038,3.814-0.606,5.812c0.096,0.458,0.247,0.921,0.554,1.299
			c0.126,0.159,0.312,0.178,0.437,0.023c0.237-0.305,0.456-0.627,0.661-0.954c0.224-0.354,0.397-0.749,0.753-0.986
			c0.261,0.199,0.176,0.423,0.174,0.622c-0.027,2.184,0.765,4.04,2.222,5.641c0.848,0.931,1.79,1.754,2.74,2.569
			c0.952,0.815,1.893,1.645,2.72,2.593c1.131,1.303,1.902,2.781,2.08,4.513c0.149,1.422,0.127,2.851-0.052,4.268
			c-0.149,1.156-0.354,2.305-0.701,3.422c-0.176,0.573-0.225,0.616-0.809,0.624c-2.119,0.026-4.222-0.155-6.298-0.595
			c-0.033-0.008-0.058-0.054-0.092-0.089c-0.085-0.369,0.176-0.648,0.295-0.959c0.529-1.396,0.519-2.782,0.011-4.18
			c-0.338-0.941-0.828-1.799-1.401-2.614c-0.802-1.135-1.724-2.161-2.643-3.192c-0.976-1.099-1.961-2.189-2.723-3.456
			c0.139-0.025,0.275-0.052,0.412-0.077c1.08,0.863,2.155,1.73,3.235,2.591c0.914,0.725,1.818,1.463,2.64,2.295
			c1.922,1.947,3.076,4.246,3.297,6.993c0.045,0.558,0.104,1.112,0.155,1.655c0.255,0.041,0.346-0.11,0.433-0.253
			c0.98-1.625,1.512-3.397,1.599-5.278c0.091-1.922-0.437-3.669-1.734-5.148c-1.026-1.169-2.131-2.264-3.27-3.326
			c-1.479-1.388-2.977-2.761-4.436-4.173c-1.214-1.176-2.296-2.467-3.219-3.886c-1.288-1.987-2.145-4.133-2.362-6.509
			c-0.021-0.247,0.01-0.524-0.209-0.717c-0.763,1.263-0.972,3.648-0.565,6.458c0.288,2.001,0.376,2.284,1.998,6.363
			c-0.84-0.253-1.272-0.532-1.844-1.207c-0.656-0.769-1.102-1.652-1.396-2.61c-0.665-2.175-0.812-4.406-0.653-6.665
			c0.162-2.332,0.499-4.634,1.128-6.89c0.042-0.158,0.131-0.351-0.014-0.49c-0.188-0.181-0.403-0.05-0.59,0.023
			c-1.828,0.741-3.421,1.82-4.727,3.314c-0.282,0.322-0.554,0.654-0.814,0.963c-0.305-0.02-0.241-0.22-0.241-0.369
			c-0.006-0.823,0.029-1.645-0.013-2.466c-0.032-0.562,0.174-0.986,0.528-1.401c1.623-1.897,3.542-3.405,5.817-4.453
			c0.313-0.145,0.637-0.261,0.952-0.408c0.051-0.026,0.091-0.146,0.08-0.212c-0.011-0.065-0.087-0.143-0.151-0.169
			c-0.12-0.043-0.254-0.058-0.381-0.07c-0.823-0.08-1.639-0.046-2.431,0.236c-0.646,0.233-1.293,0.479-1.945,0.703
			c-0.27,0.092-0.523,0.301-0.863,0.192c0.582-0.82,1.429-1.25,2.291-1.644c1.709-0.776,3.521-1.174,5.386-1.282
			c1.077-0.062,2.158-0.005,3.238-0.007c0.117,0,0.259,0.032,0.33-0.109c0.105-0.198-0.042-0.32-0.155-0.444
			c-0.327-0.355-0.737-0.589-1.185-0.764c-0.689-0.267-1.396-0.456-2.136-0.5c-1.426-0.088-2.847-0.083-4.222,0.396
			c-0.115,0.042-0.252,0.026-0.426,0.042c0.548-0.866,1.391-1.197,2.251-1.458c1.166-0.349,2.373-0.477,3.584-0.498
			c1.296-0.025,2.593,0.01,3.89,0.01c0.82,0,1.64-0.01,2.461-0.026c0.111-0.005,0.261-0.055,0.325-0.136
			c0.128-0.162,0.013-0.322-0.088-0.463c-0.441-0.616-1.024-1.026-1.738-1.286c-1.824-0.66-3.694-0.828-5.612-0.64
			c-1.998,0.195-3.729,1.004-5.287,2.243c-1.358,1.084-2.54,2.337-3.641,3.679c-0.212,0.255-0.338,0.603-0.695,0.734
			c-0.131-0.523-0.223-2.033-0.149-2.367c0.065-0.324,0.318-0.506,0.529-0.716c2.11-2.136,4.522-3.874,7.206-5.217
			c3.717-1.857,7.649-2.905,11.794-3.151c1.166-0.07,2.332-0.166,3.497-0.091c0.384,0.023,0.627,0.145,0.784,0.533
			c0.321,0.797,0.702,1.57,1.068,2.376c0.151-0.062,0.267-0.093,0.37-0.151c1.308-0.737,2.642-0.671,3.983-0.116
			c1.143,0.471,1.99,1.22,2.253,2.477c0.076,0.388,0.254,0.6,0.623,0.728c0.325,0.111,0.625,0.285,0.927,0.454
			c1.349,0.754,1.918,1.93,1.834,3.449c-0.01,0.212-0.064,0.425-0.103,0.637c-0.046,0.253,0.062,0.409,0.292,0.496
			c0.078,0.029,0.164,0.057,0.242,0.087c1.489,0.56,1.3,0.599,1.022,1.846c-0.381,1.705-0.396,3.424-0.12,5.154
			c0.053,0.328,0.185,0.55,0.458,0.725c0.871,0.559,1.742,1.12,2.605,1.695c1.007,0.672,1.969,1.405,2.812,2.282
			c0.705,0.728,1.188,1.579,1.532,2.529c0.292,0.803,0.259,1.529-0.432,2.118c-0.757,0.648-0.95,1.492-0.942,2.445
			c0.002,0.557-0.051,1.125-0.154,1.672c-0.095,0.512-0.384,0.958-0.696,1.376c-0.466,0.624-0.479,1.269-0.142,1.944
			c0.039,0.077,0.077,0.154,0.123,0.227c0.758,1.176,0.644,2.384,0.109,3.59c-0.294,0.665-0.647,1.306-1.001,2.008
			c-1.514-0.544-2.94-1.189-4.542-1.039c-0.387,0.037-0.749,0.102-1.05,0.371c0.077,0.386,0.402,0.567,0.617,0.826
			c1.528,1.865,1.896,3.915,1.062,6.185c-0.576,1.571-1.529,2.896-2.637,4.121c-1.435,1.592-1.438,1.592-3.581,2.039
			c-1.633,0.341-3.285,0.55-4.948,0.65c-0.053-0.332,0.183-0.411,0.343-0.541c0.908-0.733,1.809-1.475,2.61-2.323
			c0.806-0.854,1.532-1.761,2.024-2.837c0.922-2.013,0.552-3.905-1.066-5.426c-0.63-0.594-1.354-1.069-2.101-1.505
			c-0.889-0.528-1.808-1.011-2.692-1.55c-0.846-0.516-1.687-1.049-2.492-1.625c-2.376-1.697-3.391-4.041-3.289-6.937
			c0.097-2.66,0.949-5.069,2.259-7.349c0.01-0.021,0.08-0.01,0.188-0.019c0.074,0.503-0.036,0.993-0.112,1.484
			c-0.204,1.366-0.443,2.733-0.461,4.115c-0.014,0.779-0.012,1.56,0.066,2.332c0.155,1.656,0.862,3.06,2.12,4.162
			c0.358,0.313,0.73,0.612,1.121,0.884c1.229,0.864,2.545,1.606,3.592,2.668c0.321-0.191,0.216-0.419,0.188-0.606
			c-0.154-0.969-0.625-1.792-1.255-2.517c-0.538-0.618-1.131-1.189-1.709-1.771c-0.612-0.611-1.237-1.202-1.748-1.908
			c-1.093-1.525-1.462-3.201-1.043-5.035c0.025-0.116,0.029-0.284,0.191-0.275c0.111,0.005,0.261,0.068,0.322,0.155
			c0.295,0.423,0.572,0.861,0.851,1.297c0.231,0.363,0.441,0.741,0.683,1.098c0.298,0.44,0.705,0.758,1.191,0.967
			c0.548,0.238,0.826,0.043,0.733-0.536c-0.149-0.981-0.32-1.961-0.499-2.939c-0.06-0.333,0.013-0.598,0.311-0.775
			c0.472-0.288,0.898-0.334,1.186-0.032c0.966,1.039,2.247,1.401,3.549,1.73c0.707,0.18,1.413,0.357,2.229,0.562
			c-0.414,0.886-0.768,1.704-1.173,2.496c-0.281,0.548-0.702,0.979-1.318,1.177c-0.156,0.051-0.345,0.085-0.426,0.348
			c0.263,0.155,0.528,0.108,0.791-0.009c0.356-0.157,0.701-0.34,1.062-0.472c0.347-0.125,0.588,0.11,0.516,0.492
			c-0.042,0.24-0.123,0.476-0.187,0.703c0.373,0.251,0.576-0.146,0.867-0.15c0.391-0.008,0.535,0.193,0.541,0.547
			c-0.227,0.063-0.303,0.268-0.396,0.447c-0.025,0.048,0.043,0.141,0.067,0.214c0.033-0.012,0.08-0.016,0.104-0.039
			C109.457,40.587,109.594,40.435,109.736,40.283z M116.584,38.579c1.004-0.792,1.213-1.907,1.255-3.087
			c0.003-0.054-0.082-0.15-0.124-0.152c-0.074-0.004-0.185,0.033-0.219,0.091c-0.578,0.972-0.813,2.046-0.892,3.166l-0.084,0.019
			L116.584,38.579z M87.812,9.984c0.162,0.016,0.323,0.036,0.48,0.049c2.992,0.272,5.696,1.288,8.046,3.183
			c1.348,1.085,2.635,2.224,3.698,3.602c0.395,0.512,0.829,0.989,1.361,1.375c0.468,0.346,0.98,0.521,1.563,0.496
			c0.415-0.017,0.729-0.153,0.928-0.569c0.842-1.791,1.705-3.575,2.572-5.355c0.132-0.277,0.07-0.519-0.094-0.721
			c-0.188-0.232-0.396-0.472-0.646-0.623c-0.8-0.48-1.683-0.639-2.606-0.569c-0.213,0.018-0.296,0.165-0.3,0.348
			c-0.011,0.905-0.016,1.811-0.016,2.716c-0.003,1.108-0.003,2.212-0.003,3.342c-0.377-0.083-0.44-0.338-0.547-0.562
			c-0.498-1.05-0.997-2.1-1.496-3.15c-0.608-1.286-1.217-2.575-2.055-3.729c-1.184-1.622-0.747-1.321-2.618-1.402
			c-2.701-0.116-5.308,0.479-7.88,1.227C88.053,9.684,87.863,9.737,87.812,9.984z M109.652,48.377
			c-0.062,0.435-0.108,0.845-0.179,1.257c-0.302,1.76-0.935,3.405-1.812,4.958c-0.556,0.974-1.138,1.932-1.704,2.903
			c-0.235,0.409-0.46,0.83-0.679,1.251c-0.076,0.141-0.229,0.328-0.08,0.459c0.223,0.203,0.386-0.065,0.513-0.185
			c2.066-1.935,3.708-4.197,5.072-6.667c0.104-0.189,0.173-0.398,0.237-0.603c0.158-0.501,0.206-1.014,0.136-1.536
			C111.045,49.387,110.64,48.885,109.652,48.377z M115.086,39.784c-1.108,0.517-2.188,1.044-3.101,1.859
			c-0.458,0.407-0.83,0.872-1.038,1.459c-0.095,0.263,0.024,0.437,0.229,0.519c0.606,0.241,1.242,0.354,1.896,0.377
			c0.604,0.023,1.208,0.058,1.81,0.078c0.42,0.015,0.893,0.413,1.225,0.069c0.274-0.283,0.291-0.793,0.483-1.169
			c0.184-0.364,0.116-0.666-0.077-0.969C116.055,41.279,115.585,40.561,115.086,39.784z M105.475,18.092
			c1.322-0.32,2.485-0.66,3.465-1.461c0.166-0.133,0.313-0.303,0.42-0.481c0.53-0.876,0.527-1.077-0.115-1.822
			c-0.339-0.401-0.795-0.653-1.255-0.892c-0.365-0.193-0.536-0.164-0.745,0.158C106.38,14.936,105.833,16.399,105.475,18.092z"/>
		<path fill-rule="evenodd" clip-rule="evenodd" fill="#C1032D" d="M77.655,35.214c-0.121,1.392-0.169,2.766,0.001,4.138
			c0.319,2.583,1.19,4.937,2.842,6.973c0.715,0.88,1.553,1.618,2.528,2.196c0.15,0.089,0.294,0.182,0.543,0.087
			c0.12-0.805,0.245-1.646,0.374-2.484c0.012-0.069,0.067-0.154,0.126-0.188c0.141-0.079,0.251,0.021,0.332,0.116
			c0.401,0.471,0.652,1.033,0.765,1.625c0.335,1.8,1.387,3.127,2.733,4.27c0.656,0.556,1.328,1.102,1.99,1.656
			c0.661,0.557,1.29,1.145,1.848,1.807c0.852,1.015,1.401,2.17,1.646,3.47c0.063,0.336-0.068,0.477-0.41,0.429
			c-0.124-0.016-0.254-0.039-0.379-0.068c-5.758-1.407-10.736-4.184-14.848-8.47c-0.328-0.342-0.625-0.714-0.95-1.058
			c-0.471-0.493-0.658-1.045-0.652-1.75c0.034-3.712,0.01-7.422,0.019-11.136C76.163,35.86,76.493,35.505,77.655,35.214z"/>
		<path fill-rule="evenodd" clip-rule="evenodd" fill="#C1032D" d="M112.275,30.469c-0.889,0.21-1.53-0.21-2.129-0.729
			c-0.685-0.592-1.339-1.214-2.055-1.774c-0.947-0.741-1.557-1.087-2.623-1.002c-0.516,0.039-0.923-0.022-1.289-0.382
			c-0.062-0.058-0.142-0.097-0.219-0.135c-0.305-0.15-0.845-0.224-0.837-0.502c0.01-0.488,0.608-0.282,0.928-0.44
			c0.463-0.231,0.941-0.428,1.285-0.841c0.249-0.303,0.293-0.637,0.035-0.938c-0.282-0.321-0.621-0.592-0.924-0.896
			c-0.055-0.055-0.063-0.155-0.092-0.236c0.115-0.034,0.247-0.123,0.339-0.092c1.292,0.418,2.045,1.37,2.517,2.589
			c0.062,0.174,0.016,0.333-0.093,0.483c-0.148,0.21-0.303,0.42-0.424,0.648c-0.058,0.108-0.021,0.256,0.109,0.328
			c0.382,0.197,0.769,0.391,1.154,0.575c1.17,0.562,2.305,1.178,3.278,2.051c0.32,0.285,0.61,0.61,0.895,0.93
			C112.211,30.195,112.225,30.336,112.275,30.469z M104.399,26.253c0.113,0.184,0.28,0.283,0.494,0.305
			c0.034,0.006,0.1-0.052,0.1-0.06c-0.029-0.064-0.061-0.126-0.1-0.184c-0.109-0.145-0.248-0.205-0.422-0.142
			C104.443,26.182,104.426,26.225,104.399,26.253z"/>
		<path fill-rule="evenodd" clip-rule="evenodd" fill="#C1032D" d="M102.766,27.2c0.516,0.065,1.066,0.286,1.564,0.633
			c0.02,0.019,0.023,0.075,0.026,0.116c0.014,0.104-0.037,0.156-0.148,0.158c-0.257,0.003-0.518-0.011-0.77,0.014
			c-0.232,0.024-0.402,0.167-0.423,0.413c-0.029,0.314-0.193,0.366-0.412,0.206c-0.2-0.15-0.393-0.341-0.521-0.555
			c-0.122-0.205-0.29-0.452-0.097-0.711C102.152,27.248,102.411,27.203,102.766,27.2z"/>
		<path fill-rule="evenodd" clip-rule="evenodd" fill="#E6B155" d="M87.753,44.901c-0.137,0.025-0.273,0.052-0.412,0.077
			c-0.151-0.11-0.173-0.252-0.105-0.417l0.031-0.03C87.514,44.542,87.644,44.706,87.753,44.901z"/>
		<path fill-rule="evenodd" clip-rule="evenodd" fill="#E6B155" d="M87.235,44.561c-0.097-0.013-0.131-0.061-0.104-0.138
			c0.046,0.037,0.089,0.071,0.135,0.108L87.235,44.561z"/>
		<path fill-rule="evenodd" clip-rule="evenodd" fill="#FFFFFF" d="M87.812,9.984c0.051-0.247,0.24-0.3,0.39-0.344
			c2.572-0.748,5.179-1.343,7.88-1.227c1.871,0.081,1.435-0.22,2.618,1.402c0.838,1.154,1.446,2.443,2.055,3.729
			c0.499,1.05,0.998,2.1,1.496,3.15c0.106,0.224,0.17,0.479,0.547,0.562c0-1.129,0-2.233,0.003-3.342
			c0-0.905,0.005-1.811,0.016-2.716c0.004-0.183,0.087-0.33,0.3-0.348c0.924-0.069,1.807,0.089,2.606,0.569
			c0.25,0.151,0.458,0.391,0.646,0.623c0.164,0.203,0.226,0.444,0.094,0.721c-0.867,1.78-1.73,3.564-2.572,5.355
			c-0.199,0.417-0.513,0.552-0.928,0.569c-0.583,0.025-1.096-0.15-1.563-0.496c-0.532-0.386-0.967-0.863-1.361-1.375
			c-1.063-1.378-2.351-2.517-3.698-3.602c-2.35-1.895-5.054-2.911-8.046-3.183C88.136,10.02,87.975,10,87.812,9.984z"/>
		<path fill-rule="evenodd" clip-rule="evenodd" fill="#FFFFFF" d="M109.652,48.377c0.987,0.508,1.393,1.01,1.505,1.836
			c0.07,0.521,0.022,1.034-0.136,1.536c-0.064,0.205-0.134,0.414-0.237,0.603c-1.364,2.471-3.006,4.733-5.072,6.667
			c-0.127,0.12-0.29,0.388-0.513,0.185c-0.149-0.131,0.004-0.318,0.08-0.459c0.219-0.421,0.443-0.842,0.679-1.251
			c0.566-0.972,1.148-1.929,1.704-2.903c0.877-1.552,1.51-3.197,1.812-4.958C109.544,49.222,109.591,48.812,109.652,48.377z"/>
		<path fill-rule="evenodd" clip-rule="evenodd" fill="#FFFFFF" d="M115.086,39.784c0.499,0.777,0.969,1.496,1.426,2.222
			c0.193,0.304,0.261,0.605,0.077,0.969c-0.192,0.376-0.209,0.887-0.483,1.169c-0.332,0.344-0.805-0.054-1.225-0.069
			c-0.602-0.02-1.206-0.054-1.81-0.078c-0.653-0.023-1.289-0.136-1.896-0.377c-0.204-0.082-0.323-0.256-0.229-0.519
			c0.208-0.587,0.58-1.052,1.038-1.459C112.897,40.828,113.978,40.301,115.086,39.784z"/>
		<path fill-rule="evenodd" clip-rule="evenodd" fill="#FFFFFF" d="M105.475,18.092c0.358-1.692,0.905-3.156,1.77-4.498
			c0.209-0.322,0.38-0.352,0.745-0.158c0.46,0.239,0.916,0.491,1.255,0.892c0.643,0.745,0.646,0.946,0.115,1.822
			c-0.106,0.178-0.254,0.348-0.42,0.481C107.96,17.432,106.797,17.772,105.475,18.092z"/>
		<path fill-rule="evenodd" clip-rule="evenodd" fill="#FFFFFF" d="M116.607,38.597c0.075-1.12,0.311-2.194,0.889-3.166
			c0.034-0.058,0.145-0.095,0.219-0.091c0.042,0.002,0.127,0.099,0.124,0.152c-0.042,1.18-0.251,2.295-1.255,3.087L116.607,38.597z"
			/>
		<path fill-rule="evenodd" clip-rule="evenodd" fill="#FFFFFF" d="M109.736,40.283c-0.143,0.151-0.279,0.304-0.421,0.448
			c-0.024,0.023-0.071,0.027-0.104,0.039c-0.024-0.074-0.093-0.166-0.067-0.214c0.093-0.179,0.169-0.384,0.396-0.447
			C109.607,40.167,109.671,40.225,109.736,40.283z"/>
		<polygon fill-rule="evenodd" clip-rule="evenodd" fill="#FFFFFF" points="116.584,38.579 116.521,38.616 116.605,38.597 		"/>
		<path fill-rule="evenodd" clip-rule="evenodd" fill="#FFFFFF" d="M104.399,26.253c0.026-0.029,0.044-0.071,0.072-0.081
			c0.174-0.062,0.312-0.002,0.422,0.142c0.039,0.058,0.07,0.12,0.1,0.184c0,0.008-0.065,0.066-0.1,0.06
			C104.68,26.537,104.513,26.437,104.399,26.253z"/>
	</g>
	<g>
		<path fill="#E6B155" d="M6.936,28.098c-0.015-0.163-0.041-0.358-0.082-0.583c-0.041-0.226-0.133-0.446-0.276-0.665
			c-0.144-0.218-0.352-0.402-0.624-0.553c-0.272-0.15-0.654-0.225-1.146-0.225c-0.695,0-1.228,0.191-1.596,0.572
			c-0.368,0.383-0.552,0.976-0.552,1.78v5.708c0,0.805,0.187,1.398,0.562,1.78c0.374,0.381,0.917,0.572,1.626,0.572
			c0.463,0,0.832-0.075,1.104-0.225s0.478-0.334,0.614-0.552c0.136-0.218,0.228-0.454,0.275-0.707
			c0.049-0.251,0.078-0.487,0.093-0.705c0.026-0.313,0.163-0.532,0.409-0.655c0.246-0.122,0.545-0.184,0.899-0.184
			c0.464,0,0.805,0.089,1.023,0.266c0.218,0.178,0.327,0.525,0.327,1.044c0,0.613-0.119,1.172-0.358,1.677
			c-0.238,0.504-0.576,0.931-1.013,1.279S7.27,38.34,6.669,38.531c-0.6,0.19-1.254,0.287-1.963,0.287
			c-0.642,0-1.248-0.086-1.821-0.256c-0.572-0.171-1.074-0.439-1.503-0.808c-0.43-0.369-0.768-0.849-1.014-1.442
			C0.123,35.718,0,34.992,0,34.133v-5.708c0-0.859,0.127-1.585,0.379-2.179s0.593-1.074,1.022-1.442s0.931-0.637,1.504-0.808
			c0.573-0.17,1.179-0.256,1.82-0.256c0.709,0,1.363,0.092,1.964,0.277c0.601,0.184,1.115,0.442,1.545,0.777
			c0.43,0.334,0.764,0.743,1.002,1.228c0.239,0.483,0.358,1.019,0.358,1.605c0,0.532-0.109,0.883-0.327,1.054
			c-0.219,0.171-0.553,0.256-1.003,0.256c-0.382,0-0.695-0.061-0.941-0.184C7.079,28.63,6.949,28.413,6.936,28.098z"/>
		<path fill="#E6B155" d="M11.395,24.559c0-0.218,0.078-0.409,0.235-0.572c0.156-0.164,0.364-0.246,0.624-0.246h4.051
			c0.668,0,1.295,0.072,1.882,0.215c0.586,0.144,1.102,0.379,1.544,0.707c0.443,0.326,0.791,0.764,1.044,1.308
			c0.252,0.546,0.379,1.228,0.379,2.046c0,1.174-0.256,2.09-0.768,2.752c-0.512,0.661-1.149,1.107-1.913,1.339l2.681,4.971
			c0.04,0.055,0.067,0.113,0.081,0.174c0.014,0.062,0.021,0.113,0.021,0.154c0,0.164-0.051,0.331-0.153,0.501
			c-0.103,0.17-0.232,0.32-0.39,0.45c-0.156,0.13-0.333,0.235-0.531,0.317c-0.197,0.081-0.393,0.122-0.583,0.122
			s-0.364-0.054-0.521-0.163c-0.157-0.11-0.29-0.267-0.398-0.47l-2.904-5.646h-1.72v5.339c0,0.273-0.136,0.481-0.408,0.624
			c-0.273,0.143-0.58,0.215-0.921,0.215c-0.328,0-0.632-0.072-0.91-0.215c-0.279-0.143-0.42-0.351-0.42-0.624V24.559z
			 M14.054,26.073v4.357h2.251c0.668,0,1.199-0.16,1.595-0.48c0.396-0.32,0.594-0.883,0.594-1.688c0-0.804-0.198-1.371-0.594-1.698
			c-0.396-0.326-0.927-0.49-1.595-0.49H14.054z"/>
		<path fill="#E6B155" d="M23.055,24.559c0-0.286,0.136-0.494,0.408-0.624c0.273-0.13,0.581-0.195,0.921-0.195
			c0.328,0,0.631,0.065,0.91,0.195c0.28,0.13,0.42,0.338,0.42,0.624v13.297c0,0.273-0.14,0.481-0.42,0.624
			c-0.279,0.143-0.582,0.215-0.91,0.215c-0.34,0-0.647-0.072-0.921-0.215c-0.272-0.143-0.408-0.351-0.408-0.624V24.559z"/>
		<path fill="#E6B155" d="M32.075,36.485c0.614,0,1.15-0.143,1.606-0.43c0.456-0.287,0.686-0.736,0.686-1.35
			c0-0.504-0.164-0.917-0.491-1.238c-0.327-0.319-0.732-0.606-1.217-0.859c-0.484-0.252-1.009-0.495-1.575-0.726
			c-0.566-0.232-1.091-0.521-1.575-0.869c-0.485-0.348-0.891-0.781-1.217-1.299c-0.328-0.518-0.491-1.18-0.491-1.984
			c0-0.764,0.149-1.404,0.45-1.923c0.3-0.519,0.685-0.938,1.155-1.259c0.471-0.32,1.002-0.552,1.596-0.695
			c0.593-0.144,1.184-0.215,1.77-0.215c0.3,0,0.672,0.02,1.115,0.061c0.442,0.041,0.869,0.123,1.278,0.246
			c0.409,0.123,0.76,0.29,1.054,0.501c0.293,0.211,0.439,0.487,0.439,0.828c0,0.123-0.02,0.263-0.061,0.419s-0.106,0.311-0.195,0.46
			s-0.201,0.275-0.338,0.378c-0.137,0.102-0.293,0.153-0.47,0.153c-0.164,0-0.321-0.041-0.471-0.123
			c-0.149-0.082-0.328-0.169-0.531-0.266c-0.205-0.095-0.455-0.184-0.747-0.266c-0.294-0.082-0.651-0.123-1.074-0.123
			c-0.736,0-1.307,0.14-1.708,0.419c-0.402,0.28-0.604,0.664-0.604,1.156c0,0.422,0.163,0.767,0.491,1.033
			c0.327,0.266,0.732,0.508,1.217,0.726c0.483,0.219,1.009,0.447,1.575,0.685c0.565,0.239,1.091,0.546,1.575,0.921
			c0.483,0.376,0.89,0.846,1.217,1.412c0.328,0.566,0.491,1.292,0.491,2.179c0,0.736-0.122,1.381-0.368,1.934
			c-0.246,0.551-0.583,1.012-1.013,1.38s-0.941,0.648-1.534,0.839c-0.594,0.191-1.245,0.286-1.954,0.286
			c-0.668,0-1.291-0.075-1.872-0.225c-0.579-0.15-1.08-0.348-1.503-0.593s-0.753-0.519-0.992-0.818
			c-0.238-0.3-0.357-0.601-0.357-0.9c0-0.137,0.03-0.29,0.092-0.46c0.062-0.171,0.146-0.328,0.256-0.471s0.231-0.263,0.367-0.357
			c0.138-0.096,0.287-0.144,0.451-0.144c0.204,0,0.405,0.082,0.604,0.246c0.197,0.164,0.422,0.345,0.675,0.542
			c0.252,0.198,0.553,0.378,0.9,0.542C31.125,36.403,31.557,36.485,32.075,36.485z"/>
		<path fill="#E6B155" d="M38.847,24.559c0-0.218,0.088-0.409,0.266-0.572c0.177-0.164,0.423-0.246,0.736-0.246h4.112
			c0.654,0,1.262,0.082,1.821,0.246c0.558,0.164,1.05,0.429,1.472,0.798c0.423,0.368,0.753,0.845,0.992,1.432
			c0.238,0.586,0.358,1.295,0.358,2.127v0.123c0,0.846-0.123,1.562-0.368,2.148c-0.246,0.587-0.587,1.063-1.023,1.432
			s-0.947,0.637-1.534,0.808c-0.586,0.171-1.214,0.256-1.882,0.256h-2.291v4.746c0,0.273-0.14,0.481-0.42,0.624
			c-0.279,0.143-0.582,0.215-0.91,0.215c-0.34,0-0.647-0.072-0.921-0.215c-0.272-0.143-0.408-0.351-0.408-0.624V24.559z
			 M41.506,26.073v4.95h2.291c0.668,0,1.193-0.19,1.575-0.572c0.382-0.382,0.572-0.975,0.572-1.78v-0.246
			c0-0.804-0.19-1.397-0.572-1.78c-0.382-0.381-0.907-0.572-1.575-0.572H41.506z"/>
		<path fill="#E6B155" d="M53.555,32.701c0-0.109-0.021-0.197-0.062-0.266l-4.234-7.324c-0.041-0.095-0.062-0.184-0.062-0.266
			c0-0.164,0.058-0.313,0.174-0.451c0.115-0.136,0.263-0.251,0.44-0.348c0.177-0.095,0.367-0.169,0.572-0.225
			c0.204-0.054,0.396-0.082,0.573-0.082c0.218,0,0.385,0.041,0.5,0.123c0.116,0.082,0.222,0.219,0.318,0.41l3.109,5.911l3.129-5.911
			c0.096-0.178,0.198-0.311,0.307-0.399c0.11-0.088,0.272-0.133,0.491-0.133c0.177,0,0.369,0.028,0.573,0.082
			c0.204,0.055,0.396,0.13,0.573,0.225c0.177,0.096,0.323,0.212,0.439,0.348c0.115,0.137,0.174,0.287,0.174,0.451
			c0,0.028-0.003,0.065-0.011,0.113c-0.007,0.048-0.023,0.099-0.051,0.153l-4.214,7.324c-0.055,0.082-0.082,0.171-0.082,0.266v5.155
			c0,0.273-0.137,0.481-0.409,0.624c-0.273,0.143-0.58,0.215-0.92,0.215c-0.328,0-0.632-0.072-0.911-0.215
			c-0.28-0.143-0.419-0.351-0.419-0.624V32.701z"/>
		<path fill="#E6B155" d="M142.497,38.818c-0.682,0-1.312-0.086-1.892-0.256c-0.58-0.171-1.085-0.439-1.514-0.808
			c-0.43-0.369-0.768-0.849-1.012-1.442c-0.246-0.593-0.369-1.319-0.369-2.178v-5.708c0-0.859,0.123-1.585,0.369-2.179
			c0.244-0.593,0.582-1.074,1.012-1.442c0.429-0.369,0.934-0.637,1.514-0.808c0.579-0.17,1.21-0.256,1.892-0.256
			c0.669,0,1.296,0.086,1.883,0.256c0.586,0.171,1.098,0.439,1.534,0.808s0.777,0.849,1.022,1.442
			c0.246,0.593,0.368,1.319,0.368,2.179v5.708c0,0.859-0.122,1.585-0.368,2.178c-0.245,0.593-0.586,1.074-1.022,1.442
			s-0.948,0.637-1.534,0.808C143.793,38.732,143.166,38.818,142.497,38.818z M144.646,28.426c0-0.818-0.192-1.415-0.574-1.79
			c-0.381-0.375-0.906-0.562-1.575-0.562c-0.682,0-1.206,0.188-1.575,0.562c-0.367,0.375-0.552,0.972-0.552,1.79v5.708
			c0,0.818,0.185,1.415,0.552,1.79c0.369,0.376,0.894,0.562,1.575,0.562c0.669,0,1.194-0.187,1.575-0.562
			c0.382-0.375,0.574-0.972,0.574-1.79V28.426z"/>
		<path fill="#E6B155" d="M158.167,38.695c-0.313,0-0.604-0.061-0.869-0.184c-0.266-0.123-0.487-0.341-0.665-0.655l-4.398-8.224
			v8.224c0,0.273-0.14,0.481-0.42,0.624c-0.279,0.143-0.582,0.215-0.909,0.215c-0.341,0-0.648-0.072-0.921-0.215
			c-0.273-0.143-0.409-0.351-0.409-0.624V24.58c0-0.287,0.136-0.498,0.409-0.634c0.272-0.136,0.58-0.205,0.921-0.205
			c0.245,0,0.456,0.017,0.634,0.051c0.177,0.035,0.338,0.103,0.48,0.205c0.144,0.103,0.283,0.246,0.42,0.43
			c0.136,0.185,0.286,0.426,0.45,0.726l3.947,7.63v-8.224c0-0.286,0.137-0.494,0.41-0.624c0.272-0.13,0.579-0.195,0.92-0.195
			c0.327,0,0.631,0.065,0.911,0.195c0.278,0.13,0.419,0.338,0.419,0.624v13.297c0,0.273-0.141,0.481-0.419,0.624
			C158.798,38.623,158.494,38.695,158.167,38.695z"/>
		<path fill="#E6B155" d="M161.951,24.559c0-0.286,0.136-0.494,0.409-0.624c0.272-0.13,0.58-0.195,0.921-0.195
			c0.327,0,0.63,0.065,0.909,0.195c0.28,0.13,0.42,0.338,0.42,0.624v13.297c0,0.273-0.14,0.481-0.42,0.624
			c-0.279,0.143-0.582,0.215-0.909,0.215c-0.341,0-0.648-0.072-0.921-0.215c-0.273-0.143-0.409-0.351-0.409-0.624V24.559z"/>
		<path fill="#E6B155" d="M171.688,38.818c-0.683,0-1.312-0.086-1.892-0.256c-0.581-0.171-1.085-0.439-1.515-0.808
			s-0.768-0.849-1.012-1.442c-0.246-0.593-0.369-1.319-0.369-2.178v-5.708c0-0.859,0.123-1.585,0.369-2.179
			c0.244-0.593,0.582-1.074,1.012-1.442s0.934-0.637,1.515-0.808c0.579-0.17,1.209-0.256,1.892-0.256
			c0.668,0,1.295,0.086,1.882,0.256c0.586,0.171,1.098,0.439,1.534,0.808s0.778,0.849,1.022,1.442
			c0.246,0.593,0.369,1.319,0.369,2.179v5.708c0,0.859-0.123,1.585-0.369,2.178c-0.244,0.593-0.586,1.074-1.022,1.442
			s-0.948,0.637-1.534,0.808C172.983,38.732,172.356,38.818,171.688,38.818z M173.837,28.426c0-0.818-0.191-1.415-0.573-1.79
			c-0.382-0.375-0.907-0.562-1.575-0.562c-0.683,0-1.207,0.188-1.575,0.562c-0.368,0.375-0.553,0.972-0.553,1.79v5.708
			c0,0.818,0.185,1.415,0.553,1.79c0.368,0.376,0.893,0.562,1.575,0.562c0.668,0,1.193-0.187,1.575-0.562
			c0.382-0.375,0.573-0.972,0.573-1.79V28.426z"/>
		<path fill="#E6B155" d="M187.357,38.695c-0.313,0-0.604-0.061-0.869-0.184c-0.266-0.123-0.487-0.341-0.665-0.655l-4.398-8.224
			v8.224c0,0.273-0.14,0.481-0.419,0.624c-0.28,0.143-0.583,0.215-0.91,0.215c-0.341,0-0.648-0.072-0.921-0.215
			c-0.272-0.143-0.408-0.351-0.408-0.624V24.58c0-0.287,0.136-0.498,0.408-0.634c0.272-0.136,0.58-0.205,0.921-0.205
			c0.246,0,0.456,0.017,0.634,0.051c0.178,0.035,0.338,0.103,0.48,0.205c0.145,0.103,0.283,0.246,0.42,0.43
			c0.136,0.185,0.287,0.426,0.45,0.726l3.948,7.63v-8.224c0-0.286,0.137-0.494,0.409-0.624s0.579-0.195,0.92-0.195
			c0.327,0,0.631,0.065,0.911,0.195c0.278,0.13,0.419,0.338,0.419,0.624v13.297c0,0.273-0.141,0.481-0.419,0.624
			C187.988,38.623,187.685,38.695,187.357,38.695z"/>
		<path fill="#E6B155" d="M195.049,36.485c0.614,0,1.149-0.143,1.606-0.43c0.456-0.287,0.685-0.736,0.685-1.35
			c0-0.504-0.164-0.917-0.49-1.238c-0.328-0.319-0.733-0.606-1.218-0.859c-0.484-0.252-1.009-0.495-1.575-0.726
			c-0.566-0.232-1.091-0.521-1.575-0.869s-0.89-0.781-1.217-1.299c-0.327-0.518-0.491-1.18-0.491-1.984
			c0-0.764,0.15-1.404,0.45-1.923s0.686-0.938,1.156-1.259c0.471-0.32,1.002-0.552,1.595-0.695c0.594-0.144,1.184-0.215,1.771-0.215
			c0.3,0,0.671,0.02,1.114,0.061c0.442,0.041,0.869,0.123,1.278,0.246c0.41,0.123,0.761,0.29,1.055,0.501
			c0.292,0.211,0.439,0.487,0.439,0.828c0,0.123-0.021,0.263-0.062,0.419s-0.105,0.311-0.194,0.46s-0.202,0.275-0.338,0.378
			c-0.137,0.102-0.294,0.153-0.471,0.153c-0.163,0-0.32-0.041-0.47-0.123c-0.15-0.082-0.328-0.169-0.532-0.266
			c-0.204-0.095-0.454-0.184-0.747-0.266s-0.651-0.123-1.073-0.123c-0.736,0-1.307,0.14-1.708,0.419
			c-0.403,0.28-0.604,0.664-0.604,1.156c0,0.422,0.163,0.767,0.49,1.033c0.328,0.266,0.733,0.508,1.218,0.726
			c0.483,0.219,1.009,0.447,1.575,0.685c0.565,0.239,1.091,0.546,1.575,0.921c0.483,0.376,0.889,0.846,1.217,1.412
			c0.327,0.566,0.491,1.292,0.491,2.179c0,0.736-0.123,1.381-0.368,1.934c-0.246,0.551-0.584,1.012-1.014,1.38
			c-0.429,0.369-0.94,0.648-1.534,0.839c-0.593,0.191-1.244,0.286-1.953,0.286c-0.669,0-1.292-0.075-1.872-0.225
			c-0.579-0.15-1.081-0.348-1.503-0.593c-0.423-0.246-0.754-0.519-0.992-0.818c-0.239-0.3-0.357-0.601-0.357-0.9
			c0-0.137,0.029-0.29,0.092-0.46c0.061-0.171,0.146-0.328,0.256-0.471c0.108-0.143,0.231-0.263,0.367-0.357
			c0.137-0.096,0.287-0.144,0.45-0.144c0.205,0,0.406,0.082,0.604,0.246c0.198,0.164,0.423,0.345,0.676,0.542
			c0.251,0.198,0.552,0.378,0.899,0.542C194.098,36.403,194.53,36.485,195.049,36.485z"/>
	</g>
</g>
</svg>
