<svg id="Layer_1" data-name="Layer 1" xmlns="http://www.w3.org/2000/svg" viewBox="0 0 206 60"><defs><style>.cls-1{fill:#4b191c;}.cls-2{fill:#f39118;}.cls-3{fill:#e11f21;}</style></defs><title>logo</title><path class="cls-1" d="M47.59,34.94c-3.1,6.29-4.37,16.13-7.25,23.13h-.05s0,.05,0,.08A30,30,0,0,0,59.74,26.1C54.52,26.27,49.81,30.42,47.59,34.94Z"/><path class="cls-2" d="M30.09,59.9c11-13.39,7.7-36.81-11-45.14a20.31,20.31,0,0,0-14.93,0A30.15,30.15,0,0,0,.23,26.24a0,0,0,0,0,0,0c4-5.14,10.23-8.06,16-7.7C27,19.15,35,33,35.37,41.42c-2.14-5-7.77-15.25-18.73-16.4a20.25,20.25,0,0,0-16,5.05,1.34,1.34,0,0,1-.21.2l-.4.42A29.45,29.45,0,0,0,3.38,43.86,30,30,0,0,0,30.13,60S30.12,59.9,30.09,59.9Z"/><path class="cls-3" d="M43.14,35.44c3.49-6.92,10.52-11.06,16.41-10.58A30,30,0,0,0,16.14,3.39a30.63,30.63,0,0,0-4.37,2.79C27.65,5.19,40.57,22,43.14,35.44Z"/><path class="cls-1" d="M81.43,31.24A9.38,9.38,0,0,0,79.34,30c-.76-.32-1.52-.63-2.25-.91s-1.27-.48-1.85-.73a9.15,9.15,0,0,1-1.53-.85,3.72,3.72,0,0,1-1-1.05,2.6,2.6,0,0,1-.36-1.4,5.3,5.3,0,0,1,.17-1.21,3.37,3.37,0,0,1,.62-1.26,3.84,3.84,0,0,1,1.22-1,4.27,4.27,0,0,1,2-.4,8.13,8.13,0,0,1,3.39.57,2.11,2.11,0,0,1,1.17,2v.27h.87v-3.9H81.5a6.39,6.39,0,0,1-1-.07l-1-.21c-.45-.11-.94-.2-1.45-.28a9.8,9.8,0,0,0-4.11.24,6.75,6.75,0,0,0-2.19,1.06,5.29,5.29,0,0,0-1.56,1.82,5.67,5.67,0,0,0-.58,2.61,5,5,0,0,0,.55,2.42,5.71,5.71,0,0,0,1.43,1.66,8.38,8.38,0,0,0,2,1.16c.71.3,1.44.6,2.17.87l1.9.78a7.55,7.55,0,0,1,1.61.9,4.5,4.5,0,0,1,1.11,1.2A3.1,3.1,0,0,1,80.77,36a4.43,4.43,0,0,1-.29,1.55,4,4,0,0,1-.9,1.37,4.46,4.46,0,0,1-1.56,1,6,6,0,0,1-2.29.39,11,11,0,0,1-1.2-.11,5.57,5.57,0,0,1-1.61-.48,4.19,4.19,0,0,1-1.38-1A2.67,2.67,0,0,1,71,36.89v-.28H70.1v4.25h.28a3.3,3.3,0,0,1,.76.1l.94.28,1.72.48a8.77,8.77,0,0,0,2.31.27,10.81,10.81,0,0,0,2.62-.33,7.2,7.2,0,0,0,2.39-1.07,5.66,5.66,0,0,0,2.44-4.86,5.47,5.47,0,0,0-.6-2.66A5.91,5.91,0,0,0,81.43,31.24Z"/><path class="cls-1" d="M95.07,24.09a8.11,8.11,0,0,0-4.85-1.23H86v.83h.38c.11,0,.28.08.42.4a2,2,0,0,1,.2.77V39.65a2.37,2.37,0,0,1,0,.43,1.65,1.65,0,0,1-.14.41,1.24,1.24,0,0,1-.23.32.19.19,0,0,1-.16.08H86v.85h4.45v-.85H90a.22.22,0,0,1-.17-.07,1.47,1.47,0,0,1-.24-.34,1.38,1.38,0,0,1-.15-.4,2.37,2.37,0,0,1,0-.43V32.86h.78a8.22,8.22,0,0,0,2.32-.35,7.08,7.08,0,0,0,2.11-1,5.2,5.2,0,0,0,1.55-1.62,4.27,4.27,0,0,0,.59-2.23A4.2,4.2,0,0,0,95.07,24.09Zm-5.65.3h.11a7.34,7.34,0,0,1,2.31.31,4,4,0,0,1,1.48.8,2.74,2.74,0,0,1,.78,1.14,3.84,3.84,0,0,1,.25,1.41,2.62,2.62,0,0,1-.28,1.18,3.13,3.13,0,0,1-.82,1.05,4.35,4.35,0,0,1-1.37.75,5.88,5.88,0,0,1-1.9.29h-.56Z"/><path class="cls-1" d="M99.1,23.69h.42a.27.27,0,0,1,.2.09,1.48,1.48,0,0,1,.23.3,1.78,1.78,0,0,1,.2.78V39.65a1.72,1.72,0,0,1-.05.43,1.5,1.5,0,0,1-.15.42,1.65,1.65,0,0,1-.23.32.29.29,0,0,1-.2.07H99.1v.85h4.5v-.85h-.42a.22.22,0,0,1-.17-.07,1.83,1.83,0,0,1-.23-.34,1.76,1.76,0,0,1-.16-.4,2.37,2.37,0,0,1-.05-.43V24.86a2.19,2.19,0,0,1,.06-.39,3.19,3.19,0,0,1,.16-.41,1,1,0,0,1,.22-.28.3.3,0,0,1,.17-.09h.42v-.83H99.1Z"/><path class="cls-1" d="M120.76,37.68a3.52,3.52,0,0,1-.81,1.41,4,4,0,0,1-1.16.85,4.57,4.57,0,0,1-1.27.4,6.21,6.21,0,0,1-1.13.11,7,7,0,0,1-3.12-.71,8.57,8.57,0,0,1-2.54-1.88A8.75,8.75,0,0,1,109,35.17a8.17,8.17,0,0,1-.62-3.1,9.11,9.11,0,0,1,.47-2.82,7.72,7.72,0,0,1,1.44-2.56,7.26,7.26,0,0,1,2.42-1.84,7.79,7.79,0,0,1,3.44-.71,7.16,7.16,0,0,1,1.27.12,4.6,4.6,0,0,1,1.2.41,2.92,2.92,0,0,1,.94.79,3,3,0,0,1,.56,1.31l0,.23H121V23.35h-.28a3.34,3.34,0,0,1-.62-.06,6,6,0,0,1-.74-.2L118,22.75a8,8,0,0,0-1.71-.17,11.19,11.19,0,0,0-4.55.86,9.52,9.52,0,0,0-3.23,2.24,9.11,9.11,0,0,0-1.9,3.13,10.52,10.52,0,0,0-.62,3.51,10.37,10.37,0,0,0,.62,3.5,9.26,9.26,0,0,0,1.87,3.11,9.7,9.7,0,0,0,3.14,2.23A10.63,10.63,0,0,0,116,42a9.72,9.72,0,0,0,1.9-.18c.59-.11,1.13-.23,1.61-.36l1-.25a3.49,3.49,0,0,1,.81-.11h.29V37.48h-.77Z"/><path class="cls-1" d="M135,38.2a2.26,2.26,0,0,1-.11.6,2.07,2.07,0,0,1-.34.66,2.48,2.48,0,0,1-.58.54,1.47,1.47,0,0,1-.77.2h-5.8V32.36h4.33a1.3,1.3,0,0,1,.9.29.84.84,0,0,1,.32.65v.28h.84v-4h-.84v.28a.9.9,0,0,1-.34.71,1.25,1.25,0,0,1-.88.32h-4.33V24.39h5.3a1.44,1.44,0,0,1,1.61,1.35l0,.26h.82V22.86H123.85v.83h.42a.27.27,0,0,1,.2.09,1,1,0,0,1,.23.3,1.62,1.62,0,0,1,.17.41,1.41,1.41,0,0,1,.06.37V39.71a1.43,1.43,0,0,1-.06.39,1.48,1.48,0,0,1-.17.41,1.19,1.19,0,0,1-.23.31.29.29,0,0,1-.2.07h-.42v.85h11.94V37.92H135Z"/><path class="cls-1" d="M152.63,38a2.45,2.45,0,0,1-.12.71,2.19,2.19,0,0,1-.35.72,2,2,0,0,1-.57.55,1.33,1.33,0,0,1-.76.21H145V24.86a1.35,1.35,0,0,1,.06-.37,1.92,1.92,0,0,1,.16-.42.93.93,0,0,1,.22-.29.26.26,0,0,1,.19-.09h.43v-.83h-4.57v.83H142a.26.26,0,0,1,.19.09,1.22,1.22,0,0,1,.24.3,2.09,2.09,0,0,1,.17.41,1.41,1.41,0,0,1,.06.37V39.71a1.43,1.43,0,0,1-.06.39,1.86,1.86,0,0,1-.17.41,1.5,1.5,0,0,1-.24.31.28.28,0,0,1-.19.07h-.43v.85h11.95V37.68h-.84Z"/><path class="cls-1" d="M169.45,40.49a4.91,4.91,0,0,1-.52-1L162.46,22l-6.63,17.63a3.27,3.27,0,0,1-.52.94.71.71,0,0,1-.49.32h-.42v.85h3.65v-.85h-.42a.27.27,0,0,1-.21-.11.54.54,0,0,1-.12-.38,1,1,0,0,1,.06-.32l2.35-6.45h4.46l2.43,6.55a1.47,1.47,0,0,1,.07.38c0,.22-.06.33-.39.33h-.42v.85h4.68v-.85h-.43A.74.74,0,0,1,169.45,40.49Zm-7.52-13.07,1.73,4.7h-3.47Z"/><path class="cls-1" d="M184.18,23.69h.42a.27.27,0,0,1,.2.09,1.19,1.19,0,0,1,.23.3,2.09,2.09,0,0,1,.17.41,1.41,1.41,0,0,1,.06.37V38l-9.64-15.18h-3.24v.83h.43a.46.46,0,0,1,.29.1.77.77,0,0,1,.23.28,1.63,1.63,0,0,1,.13.39,3,3,0,0,1,0,.4V39.65a1.62,1.62,0,0,1-.06.41,1.82,1.82,0,0,1-.16.43.87.87,0,0,1-.23.31c-.1.09-.16.09-.18.09h-.42v.85h3.64v-.85h-.42a.25.25,0,0,1-.19-.08,1.4,1.4,0,0,1-.24-.33,1.38,1.38,0,0,1-.15-.4,2.37,2.37,0,0,1-.05-.43V26.5l9.61,15.24h2.16V24.86a1.82,1.82,0,0,1,0-.38,1.76,1.76,0,0,1,.16-.4,1,1,0,0,1,.23-.3.27.27,0,0,1,.2-.09h.42v-.83h-3.67Z"/><path class="cls-1" d="M205.34,28.81a9.11,9.11,0,0,0-1.9-3,9.31,9.31,0,0,0-3.05-2.12,10.09,10.09,0,0,0-4-.78H190.7v.83h.42a.27.27,0,0,1,.2.09.81.81,0,0,1,.21.29,1.34,1.34,0,0,1,.15.41,1.89,1.89,0,0,1,0,.38V39.65a2.37,2.37,0,0,1,0,.43,1.38,1.38,0,0,1-.15.4,1.43,1.43,0,0,1-.25.33.19.19,0,0,1-.16.08h-.42v.85H196a10.92,10.92,0,0,0,4.35-.82,9.67,9.67,0,0,0,3.15-2.13,8.87,8.87,0,0,0,1.89-3,9.63,9.63,0,0,0,.63-3.42A9.87,9.87,0,0,0,205.34,28.81Zm-11.19-4.42h1.14a8.13,8.13,0,0,1,3.29.67,8.61,8.61,0,0,1,2.64,1.81A8.28,8.28,0,0,1,203,29.54a8.67,8.67,0,0,1,.62,3.26,6.9,6.9,0,0,1-.74,3.28,7.06,7.06,0,0,1-1.91,2.31,8.13,8.13,0,0,1-2.65,1.36,10,10,0,0,1-2.94.45h-1.19Z"/></svg>